# Blender v3.0.1 OBJ File: 'trees.blend'
# www.blender.org
mtllib tree001Top.mtl
o Cylinder.007_Cylinder.023
v -0.176305 0.759884 -0.680073
v -0.081595 1.159846 -0.314743
v 0.421778 0.759884 -0.561859
v 0.195202 1.159846 -0.260033
v 0.702253 0.759884 -0.020554
v 0.325009 1.159846 -0.009512
v 0.453917 0.759884 0.536229
v 0.210077 1.159846 0.248171
v -0.136228 0.759884 0.689220
v -0.063047 1.159846 0.318977
v -0.623790 0.759884 0.323215
v -0.288695 1.159846 0.149586
v -0.641626 0.759884 -0.286178
v -0.296950 1.159846 -0.132445
vt 1.000000 0.500000
vt 1.000000 1.000000
vt 0.857143 1.000000
vt 0.857143 0.500000
vt 0.714286 1.000000
vt 0.714286 0.500000
vt 0.571429 1.000000
vt 0.571429 0.500000
vt 0.428571 1.000000
vt 0.428571 0.500000
vt 0.285714 1.000000
vt 0.285714 0.500000
vt 0.437640 0.399638
vt 0.250000 0.490000
vt 0.062360 0.399638
vt 0.016017 0.196595
vt 0.145868 0.033767
vt 0.354132 0.033767
vt 0.483983 0.196595
vt 0.142857 1.000000
vt 0.142857 0.500000
vt 0.000000 1.000000
vt 0.000000 0.500000
vt 0.750000 0.490000
vt 0.937640 0.399638
vt 0.983983 0.196595
vt 0.854132 0.033767
vt 0.645868 0.033767
vt 0.516017 0.196595
vt 0.562360 0.399638
vn 0.1477 0.6477 -0.7474
vn 0.6765 0.6477 -0.3505
vn 0.6958 0.6477 0.3103
vn 0.1912 0.6477 0.7375
vn -0.4574 0.6477 0.6093
vn 0.0000 1.0000 0.0000
vn -0.7616 0.6477 0.0223
vn -0.4922 0.6477 -0.5815
vn 0.0000 -1.0000 -0.0000
usemtl None
s off
f 1/1/1 2/2/1 4/3/1 3/4/1
f 3/4/2 4/3/2 6/5/2 5/6/2
f 5/6/3 6/5/3 8/7/3 7/8/3
f 7/8/4 8/7/4 10/9/4 9/10/4
f 9/10/5 10/9/5 12/11/5 11/12/5
f 4/13/6 2/14/6 14/15/6 12/16/6 10/17/6 8/18/6 6/19/6
f 11/12/7 12/11/7 14/20/7 13/21/7
f 13/21/8 14/20/8 2/22/8 1/23/8
f 1/24/9 3/25/9 5/26/9 7/27/9 9/28/9 11/29/9 13/30/9
o Cylinder.019_Cylinder.024
v -0.625131 1.128088 -0.146075
v -0.262897 1.482168 -0.054022
v -0.281049 1.136297 -0.579481
v -0.115735 1.485680 -0.239387
v 0.272312 1.126801 -0.580985
v 0.120934 1.481618 -0.240031
v 0.618260 1.106749 -0.149454
v 0.268894 1.473042 -0.055467
v 0.496289 1.091242 0.390160
v 0.216728 1.466409 0.175323
v -0.001755 1.091956 0.631517
v 0.003718 1.466715 0.278550
v -0.500833 1.108354 0.392870
v -0.209736 1.473728 0.176482
vt 1.000000 0.500000
vt 1.000000 1.000000
vt 0.857143 1.000000
vt 0.857143 0.500000
vt 0.714286 1.000000
vt 0.714286 0.500000
vt 0.571429 1.000000
vt 0.571429 0.500000
vt 0.428571 1.000000
vt 0.428571 0.500000
vt 0.285714 1.000000
vt 0.285714 0.500000
vt 0.437640 0.399638
vt 0.250000 0.490000
vt 0.062360 0.399638
vt 0.016017 0.196595
vt 0.145868 0.033767
vt 0.354132 0.033767
vt 0.483983 0.196595
vt 0.142857 1.000000
vt 0.142857 0.500000
vt 0.000000 1.000000
vt 0.000000 0.500000
vt 0.750000 0.490000
vt 0.937640 0.399638
vt 0.983983 0.196595
vt 0.854132 0.033767
vt 0.645868 0.033767
vt 0.516017 0.196595
vt 0.562360 0.399638
vn -0.5688 0.6959 -0.4384
vn 0.0100 0.6951 -0.7189
vn 0.5900 0.6760 -0.4415
vn 0.7344 0.6531 0.1848
vn 0.3345 0.6435 0.6884
vn 0.0172 0.9993 0.0326
vn -0.3085 0.6546 0.6902
vn -0.7106 0.6779 0.1887
vn -0.0172 -0.9993 -0.0326
usemtl None
s off
f 15/31/10 16/32/10 18/33/10 17/34/10
f 17/34/11 18/33/11 20/35/11 19/36/11
f 19/36/12 20/35/12 22/37/12 21/38/12
f 21/38/13 22/37/13 24/39/13 23/40/13
f 23/40/14 24/39/14 26/41/14 25/42/14
f 18/43/15 16/44/15 28/45/15 26/46/15 24/47/15 22/48/15 20/49/15
f 25/42/16 26/41/16 28/50/16 27/51/16
f 27/51/17 28/50/17 16/52/17 15/53/17
f 15/54/18 17/55/18 19/56/18 21/57/18 23/58/18 25/59/18 27/60/18
o Cylinder.020_Cylinder.025
v -0.415992 1.445964 -0.361258
v -0.169105 1.799648 -0.146855
v 0.023076 1.445964 -0.550477
v 0.009381 1.799648 -0.223775
v 0.444768 1.445964 -0.325175
v 0.180803 1.799648 -0.132187
v 0.531540 1.445964 0.144990
v 0.216077 1.799648 0.058940
v 0.218052 1.445964 0.505975
v 0.088640 1.799648 0.205684
v -0.259634 1.445964 0.485950
v -0.105544 1.799648 0.197544
v -0.541810 1.445964 0.099995
v -0.220252 1.799648 0.040649
vt 1.000000 0.500000
vt 1.000000 1.000000
vt 0.857143 1.000000
vt 0.857143 0.500000
vt 0.714286 1.000000
vt 0.714286 0.500000
vt 0.571429 1.000000
vt 0.571429 0.500000
vt 0.428571 1.000000
vt 0.428571 0.500000
vt 0.285714 1.000000
vt 0.285714 0.500000
vt 0.437640 0.399638
vt 0.250000 0.490000
vt 0.062360 0.399638
vt 0.016017 0.196595
vt 0.145868 0.033767
vt 0.354132 0.033767
vt 0.483983 0.196595
vt 0.142857 1.000000
vt 0.142857 0.500000
vt 0.000000 1.000000
vt 0.000000 0.500000
vt 0.750000 0.490000
vt 0.937640 0.399638
vt 0.983983 0.196595
vt 0.854132 0.033767
vt 0.645868 0.033767
vt 0.516017 0.196595
vt 0.562360 0.399638
vn -0.3041 0.6400 -0.7056
vn 0.3621 0.6400 -0.6777
vn 0.7556 0.6400 -0.1395
vn 0.5801 0.6400 0.5038
vn -0.0322 0.6400 0.7677
vn 0.0000 1.0000 -0.0000
vn -0.6203 0.6400 0.4535
vn -0.7413 0.6400 -0.2022
vn 0.0000 -1.0000 -0.0000
usemtl None
s off
f 29/61/19 30/62/19 32/63/19 31/64/19
f 31/64/20 32/63/20 34/65/20 33/66/20
f 33/66/21 34/65/21 36/67/21 35/68/21
f 35/68/22 36/67/22 38/69/22 37/70/22
f 37/70/23 38/69/23 40/71/23 39/72/23
f 32/73/24 30/74/24 42/75/24 40/76/24 38/77/24 36/78/24 34/79/24
f 39/72/25 40/71/25 42/80/25 41/81/25
f 41/81/26 42/80/26 30/82/26 29/83/26
f 29/84/27 31/85/27 33/86/27 35/87/27 37/88/27 39/89/27 41/90/27
o Cylinder.021_Cylinder.026
v -0.476192 1.812720 -0.174428
v -0.188542 2.133627 -0.070907
v -0.161709 1.806128 -0.478748
v -0.060701 2.130947 -0.194616
v 0.272243 1.797032 -0.422560
v 0.115705 2.127250 -0.171775
v 0.498888 1.792282 -0.048177
v 0.207839 2.125319 -0.019584
v 0.347558 1.795454 0.362485
v 0.146322 2.126608 0.147354
v -0.067792 1.804160 0.500188
v -0.022523 2.130147 0.203332
v -0.434396 1.811844 0.261239
v -0.171551 2.133271 0.106197
vt 1.000000 0.500000
vt 1.000000 1.000000
vt 0.857143 1.000000
vt 0.857143 0.500000
vt 0.714286 1.000000
vt 0.714286 0.500000
vt 0.571429 1.000000
vt 0.571429 0.500000
vt 0.428571 1.000000
vt 0.428571 0.500000
vt 0.285714 1.000000
vt 0.285714 0.500000
vt 0.437640 0.399638
vt 0.250000 0.490000
vt 0.062360 0.399638
vt 0.016017 0.196595
vt 0.145868 0.033767
vt 0.354132 0.033767
vt 0.483983 0.196595
vt 0.142857 1.000000
vt 0.142857 0.500000
vt 0.000000 1.000000
vt 0.000000 0.500000
vt 0.750000 0.490000
vt 0.937640 0.399638
vt 0.983983 0.196595
vt 0.854132 0.033767
vt 0.645868 0.033767
vt 0.516017 0.196595
vt 0.562360 0.399638
vn -0.5229 0.6475 -0.5544
vn 0.1123 0.6342 -0.7650
vn 0.6730 0.6225 -0.3995
vn 0.7369 0.6211 0.2668
vn 0.2560 0.6312 0.7322
vn 0.0210 0.9998 -0.0000
vn -0.4077 0.6451 0.6462
vn -0.7543 0.6524 0.0737
vn -0.0210 -0.9998 0.0000
usemtl None
s off
f 43/91/28 44/92/28 46/93/28 45/94/28
f 45/94/29 46/93/29 48/95/29 47/96/29
f 47/96/30 48/95/30 50/97/30 49/98/30
f 49/98/31 50/97/31 52/99/31 51/100/31
f 51/100/32 52/99/32 54/101/32 53/102/32
f 46/103/33 44/104/33 56/105/33 54/106/33 52/107/33 50/108/33 48/109/33
f 53/102/34 54/101/34 56/110/34 55/111/34
f 55/111/35 56/110/35 44/112/35 43/113/35
f 43/114/36 45/115/36 47/116/36 49/117/36 51/118/36 53/119/36 55/120/36
o Cylinder.022_Cylinder.027
v -0.293958 2.120050 -0.277088
v -0.084813 2.493165 -0.075986
v 0.029471 2.118765 -0.402450
v 0.013092 2.492776 -0.113935
v 0.329072 2.109377 -0.227855
v 0.103784 2.489934 -0.061083
v 0.379239 2.098956 0.115224
v 0.118970 2.486779 0.042771
v 0.142195 2.095348 0.368442
v 0.047215 2.485687 0.119422
v -0.203561 2.101272 0.341119
v -0.057449 2.487480 0.111151
v -0.397667 2.112265 0.053832
v -0.116207 2.490808 0.024186
vt 1.000000 0.500000
vt 1.000000 1.000000
vt 0.857143 1.000000
vt 0.857143 0.500000
vt 0.714286 1.000000
vt 0.714286 0.500000
vt 0.571429 1.000000
vt 0.571429 0.500000
vt 0.428571 1.000000
vt 0.428571 0.500000
vt 0.285714 1.000000
vt 0.285714 0.500000
vt 0.437640 0.399638
vt 0.250000 0.490000
vt 0.062360 0.399638
vt 0.016017 0.196595
vt 0.145868 0.033767
vt 0.354132 0.033767
vt 0.483983 0.196595
vt 0.142857 1.000000
vt 0.142857 0.500000
vt 0.000000 1.000000
vt 0.000000 0.500000
vt 0.750000 0.490000
vt 0.937640 0.399638
vt 0.983983 0.196595
vt 0.854132 0.033767
vt 0.645868 0.033767
vt 0.516017 0.196595
vt 0.562360 0.399638
vn -0.2935 0.5758 -0.7631
vn 0.4291 0.5634 -0.7060
vn 0.8347 0.5404 -0.1056
vn 0.6180 0.5242 0.5860
vn -0.0580 0.5269 0.8480
vn 0.0149 0.9995 0.0282
vn -0.6841 0.5465 0.4831
vn -0.7889 0.5683 -0.2339
vn -0.0149 -0.9995 -0.0282
usemtl None
s off
f 57/121/37 58/122/37 60/123/37 59/124/37
f 59/124/38 60/123/38 62/125/38 61/126/38
f 61/126/39 62/125/39 64/127/39 63/128/39
f 63/128/40 64/127/40 66/129/40 65/130/40
f 65/130/41 66/129/41 68/131/41 67/132/41
f 60/133/42 58/134/42 70/135/42 68/136/42 66/137/42 64/138/42 62/139/42
f 67/132/43 68/131/43 70/140/43 69/141/43
f 69/141/44 70/140/44 58/142/44 57/143/44
f 57/144/45 59/145/45 61/146/45 63/147/45 65/148/45 67/149/45 69/150/45
o Cylinder.023_Cylinder.028
v -0.115902 2.439607 -0.296946
v -0.000000 2.960627 -0.000000
v 0.159898 2.439607 -0.275758
v 0.315291 2.439607 -0.046919
v 0.233264 2.439607 0.217251
v -0.024416 2.439607 0.317827
v -0.263710 2.439607 0.179072
v -0.304425 2.439607 -0.094527
vt 1.000000 0.500000
vt 0.857143 1.000000
vt 0.857143 0.500000
vt 0.714286 1.000000
vt 0.714286 0.500000
vt 0.571429 1.000000
vt 0.571429 0.500000
vt 0.428571 1.000000
vt 0.428571 0.500000
vt 0.285714 1.000000
vt 0.285714 0.500000
vt 0.142857 1.000000
vt 0.142857 0.500000
vt 0.000000 1.000000
vt 0.000000 0.500000
vt 0.750000 0.490000
vt 0.937640 0.399638
vt 0.983983 0.196595
vt 0.854132 0.033767
vt 0.645868 0.033767
vt 0.516017 0.196595
vt 0.562360 0.399638
vn 0.0671 0.4827 -0.8732
vn 0.7245 0.4827 -0.4920
vn 0.8364 0.4827 0.2597
vn 0.3184 0.4827 0.8158
vn -0.4393 0.4827 0.7576
vn -0.8662 0.4827 0.1289
vn -0.6409 0.4827 -0.5969
vn 0.0000 -1.0000 -0.0000
usemtl None
s off
f 71/151/46 72/152/46 73/153/46
f 73/153/47 72/154/47 74/155/47
f 74/155/48 72/156/48 75/157/48
f 75/157/49 72/158/49 76/159/49
f 76/159/50 72/160/50 77/161/50
f 77/161/51 72/162/51 78/163/51
f 78/163/52 72/164/52 71/165/52
f 71/166/53 73/167/53 74/168/53 75/169/53 76/170/53 77/171/53 78/172/53
