# Blender v3.0.1 OBJ File: 'trees.blend'
# www.blender.org
mtllib tree002Top.mtl
o Cylinder.008_Cylinder.009
v 0.161916 0.921623 -0.683641
v 0.074936 1.321585 -0.316395
v 0.635445 0.921623 -0.299653
v 0.294089 1.321585 -0.138682
v 0.630471 0.921623 0.309981
v 0.291787 1.321585 0.143462
v 0.150740 0.921623 0.686192
v 0.069764 1.321585 0.317575
v -0.442502 0.921623 0.545687
v -0.204793 1.321585 0.252548
v -0.702530 0.921623 -0.005732
v -0.325137 1.321585 -0.002653
v -0.433539 0.921623 -0.552834
v -0.200646 1.321585 -0.255856
vt 1.000000 0.500000
vt 1.000000 1.000000
vt 0.857143 1.000000
vt 0.857143 0.500000
vt 0.714286 1.000000
vt 0.714286 0.500000
vt 0.571429 1.000000
vt 0.571429 0.500000
vt 0.428571 1.000000
vt 0.428571 0.500000
vt 0.285714 1.000000
vt 0.285714 0.500000
vt 0.437640 0.399638
vt 0.250000 0.490000
vt 0.062360 0.399638
vt 0.016017 0.196595
vt 0.145868 0.033767
vt 0.354132 0.033767
vt 0.483983 0.196595
vt 0.142857 1.000000
vt 0.142857 0.500000
vt 0.000000 1.000000
vt 0.000000 0.500000
vt 0.750000 0.490000
vt 0.937640 0.399638
vt 0.983983 0.196595
vt 0.854132 0.033767
vt 0.645868 0.033767
vt 0.516017 0.196595
vt 0.562360 0.399638
vn 0.4799 0.6477 -0.5918
vn 0.7619 0.6477 0.0062
vn 0.4701 0.6477 0.5995
vn -0.1756 0.6477 0.7414
vn -0.6891 0.6477 0.3250
vn 0.0000 1.0000 0.0000
vn -0.6837 0.6477 -0.3362
vn -0.1635 0.6477 -0.7441
vn 0.0000 -1.0000 -0.0000
usemtl None
s off
f 1/1/1 2/2/1 4/3/1 3/4/1
f 3/4/2 4/3/2 6/5/2 5/6/2
f 5/6/3 6/5/3 8/7/3 7/8/3
f 7/8/4 8/7/4 10/9/4 9/10/4
f 9/10/5 10/9/5 12/11/5 11/12/5
f 4/13/6 2/14/6 14/15/6 12/16/6 10/17/6 8/18/6 6/19/6
f 11/12/7 12/11/7 14/20/7 13/21/7
f 13/21/8 14/20/8 2/22/8 1/23/8
f 1/24/9 3/25/9 5/26/9 7/27/9 9/28/9 11/29/9 13/30/9
o Cylinder.009_Cylinder.010
v -0.484424 1.293616 -0.421260
v -0.207185 1.647697 -0.170609
v 0.022306 1.301826 -0.643653
v 0.009540 1.651208 -0.265725
v 0.512239 1.292330 -0.386405
v 0.219082 1.647147 -0.155702
v 0.616445 1.272278 0.156770
v 0.263650 1.638571 0.076611
v 0.256456 1.256770 0.576851
v 0.109685 1.631938 0.256278
v -0.296650 1.257484 0.557508
v -0.126875 1.632243 0.248005
v -0.626372 1.273882 0.113307
v -0.267896 1.639257 0.058022
vt 1.000000 0.500000
vt 1.000000 1.000000
vt 0.857143 1.000000
vt 0.857143 0.500000
vt 0.714286 1.000000
vt 0.714286 0.500000
vt 0.571429 1.000000
vt 0.571429 0.500000
vt 0.428571 1.000000
vt 0.428571 0.500000
vt 0.285714 1.000000
vt 0.285714 0.500000
vt 0.437640 0.399638
vt 0.250000 0.490000
vt 0.062360 0.399638
vt 0.016017 0.196595
vt 0.145868 0.033767
vt 0.354132 0.033767
vt 0.483983 0.196595
vt 0.142857 1.000000
vt 0.142857 0.500000
vt 0.000000 1.000000
vt 0.000000 0.500000
vt 0.750000 0.490000
vt 0.937640 0.399638
vt 0.983983 0.196595
vt 0.854132 0.033767
vt 0.645868 0.033767
vt 0.516017 0.196595
vt 0.562360 0.399638
vn -0.2980 0.6959 -0.6534
vn 0.3447 0.6951 -0.6309
vn 0.7279 0.6760 -0.1147
vn 0.5630 0.6531 0.5065
vn -0.0259 0.6435 0.7650
vn -0.0000 0.9993 0.0369
vn -0.5953 0.6546 0.4660
vn -0.7164 0.6779 -0.1652
vn -0.0000 -0.9993 -0.0369
usemtl None
s off
f 15/31/10 16/32/10 18/33/10 17/34/10
f 17/34/11 18/33/11 20/35/11 19/36/11
f 19/36/12 20/35/12 22/37/12 21/38/12
f 21/38/13 22/37/13 24/39/13 23/40/13
f 23/40/14 24/39/14 26/41/14 25/42/14
f 18/43/15 16/44/15 28/45/15 26/46/15 24/47/15 22/48/15 20/49/15
f 25/42/16 26/41/16 28/50/16 27/51/16
f 27/51/17 28/50/17 16/52/17 15/53/17
f 15/54/18 17/55/18 19/56/18 21/57/18 23/58/18 25/59/18 27/60/18
o Cylinder.010_Cylinder.011
v -0.205835 1.618133 -0.514151
v -0.072274 1.965377 -0.208214
v 0.270325 1.597169 -0.476515
v 0.121290 1.956855 -0.192915
v 0.537759 1.584252 -0.080412
v 0.230005 1.951604 -0.031895
v 0.395084 1.589108 0.375882
v 0.172006 1.953578 0.153594
v -0.050264 1.608080 0.548770
v -0.009033 1.961290 0.223875
v -0.462928 1.626882 0.308063
v -0.176785 1.968933 0.126025
v -0.532163 1.631356 -0.164981
v -0.204930 1.970752 -0.066273
vt 1.000000 0.500000
vt 1.000000 1.000000
vt 0.857143 1.000000
vt 0.857143 0.500000
vt 0.714286 1.000000
vt 0.714286 0.500000
vt 0.571429 1.000000
vt 0.571429 0.500000
vt 0.428571 1.000000
vt 0.428571 0.500000
vt 0.285714 1.000000
vt 0.285714 0.500000
vt 0.437640 0.399638
vt 0.250000 0.490000
vt 0.062360 0.399638
vt 0.016017 0.196595
vt 0.145868 0.033767
vt 0.354132 0.033767
vt 0.483983 0.196595
vt 0.142857 1.000000
vt 0.142857 0.500000
vt 0.000000 1.000000
vt 0.000000 0.500000
vt 0.750000 0.490000
vt 0.937640 0.399638
vt 0.983983 0.196595
vt 0.854132 0.033767
vt 0.645868 0.033767
vt 0.516017 0.196595
vt 0.562360 0.399638
vn 0.0885 0.6391 -0.7640
vn 0.6640 0.6129 -0.4283
vn 0.7606 0.6066 0.2314
vn 0.3055 0.6251 0.7183
vn -0.3586 0.6543 0.6658
vn 0.0437 0.9990 0.0030
vn -0.7315 0.6723 0.1134
vn -0.5325 0.6655 -0.5229
vn -0.0437 -0.9990 -0.0030
usemtl None
s off
f 29/61/19 30/62/19 32/63/19 31/64/19
f 31/64/20 32/63/20 34/65/20 33/66/20
f 33/66/21 34/65/21 36/67/21 35/68/21
f 35/68/22 36/67/22 38/69/22 37/70/22
f 37/70/23 38/69/23 40/71/23 39/72/23
f 32/73/24 30/74/24 42/75/24 40/76/24 38/77/24 36/78/24 34/79/24
f 39/72/25 40/71/25 42/80/25 41/81/25
f 41/81/26 42/80/26 30/82/26 29/83/26
f 29/84/27 31/85/27 33/86/27 35/87/27 37/88/27 39/89/27 41/90/27
o Cylinder.011_Cylinder.012
v -0.342304 1.945124 -0.381386
v -0.139150 2.271989 -0.155038
v 0.084757 1.945124 -0.505414
v 0.034455 2.271989 -0.205456
v 0.447994 1.945124 -0.248855
v 0.182114 2.271989 -0.101162
v 0.473882 1.945124 0.195097
v 0.192638 2.271989 0.079309
v 0.142928 1.945124 0.492137
v 0.058102 2.271989 0.200059
v -0.295654 1.945124 0.418588
v -0.120187 2.271989 0.170160
v -0.511603 1.945124 0.029833
v -0.207972 2.271989 0.012128
vt 1.000000 0.500000
vt 1.000000 1.000000
vt 0.857143 1.000000
vt 0.857143 0.500000
vt 0.714286 1.000000
vt 0.714286 0.500000
vt 0.571429 1.000000
vt 0.571429 0.500000
vt 0.428571 1.000000
vt 0.428571 0.500000
vt 0.285714 1.000000
vt 0.285714 0.500000
vt 0.437640 0.399638
vt 0.250000 0.490000
vt 0.062360 0.399638
vt 0.016017 0.196595
vt 0.145868 0.033767
vt 0.354132 0.033767
vt 0.483983 0.196595
vt 0.142857 1.000000
vt 0.142857 0.500000
vt 0.000000 1.000000
vt 0.000000 0.500000
vt 0.750000 0.490000
vt 0.937640 0.399638
vt 0.983983 0.196595
vt 0.854132 0.033767
vt 0.645868 0.033767
vt 0.516017 0.196595
vt 0.562360 0.399638
vn -0.2137 0.6424 -0.7359
vn 0.4421 0.6424 -0.6259
vn 0.7650 0.6424 -0.0446
vn 0.5119 0.6424 0.5703
vn -0.1267 0.6424 0.7558
vn 0.0000 1.0000 -0.0000
vn -0.6699 0.6424 0.3721
vn -0.7086 0.6424 -0.2917
vn 0.0000 -1.0000 0.0000
usemtl None
s off
f 43/91/28 44/92/28 46/93/28 45/94/28
f 45/94/29 46/93/29 48/95/29 47/96/29
f 47/96/30 48/95/30 50/97/30 49/98/30
f 49/98/31 50/97/31 52/99/31 51/100/31
f 51/100/32 52/99/32 54/101/32 53/102/32
f 46/103/33 44/104/33 56/105/33 54/106/33 52/107/33 50/108/33 48/109/33
f 53/102/34 54/101/34 56/110/34 55/111/34
f 55/111/35 56/110/35 44/112/35 43/113/35
f 43/114/36 45/115/36 47/116/36 49/117/36 51/118/36 53/119/36 55/120/36
o Cylinder.012_Cylinder.013
v -0.137594 2.294322 -0.403138
v -0.041651 2.666994 -0.113108
v 0.225921 2.292966 -0.360624
v 0.068388 2.666583 -0.100238
v 0.419312 2.283061 -0.050054
v 0.126930 2.663585 -0.006226
v 0.296953 2.272066 0.294706
v 0.089891 2.660256 0.098136
v -0.049018 2.268260 0.414045
v -0.014838 2.659104 0.134261
v -0.358077 2.274509 0.218097
v -0.108394 2.660996 0.074946
v -0.397497 2.286108 -0.145583
v -0.120326 2.664507 -0.035144
vt 1.000000 0.500000
vt 1.000000 1.000000
vt 0.857143 1.000000
vt 0.857143 0.500000
vt 0.714286 1.000000
vt 0.714286 0.500000
vt 0.571429 1.000000
vt 0.571429 0.500000
vt 0.428571 1.000000
vt 0.428571 0.500000
vt 0.285714 1.000000
vt 0.285714 0.500000
vt 0.437640 0.399638
vt 0.250000 0.490000
vt 0.062360 0.399638
vt 0.016017 0.196595
vt 0.145868 0.033767
vt 0.354132 0.033767
vt 0.483983 0.196595
vt 0.142857 1.000000
vt 0.142857 0.500000
vt 0.000000 1.000000
vt 0.000000 0.500000
vt 0.750000 0.490000
vt 0.937640 0.399638
vt 0.983983 0.196595
vt 0.854132 0.033767
vt 0.645868 0.033767
vt 0.516017 0.196595
vt 0.562360 0.399638
vn 0.0955 0.5959 -0.7973
vn 0.6974 0.5838 -0.4157
vn 0.7742 0.5612 0.2927
vn 0.2680 0.5452 0.7943
vn -0.4400 0.5478 0.7115
vn 0.0000 0.9995 0.0319
vn -0.8167 0.5671 0.1066
vn -0.5784 0.5885 -0.5649
vn 0.0000 -0.9995 -0.0319
usemtl None
s off
f 57/121/37 58/122/37 60/123/37 59/124/37
f 59/124/38 60/123/38 62/125/38 61/126/38
f 61/126/39 62/125/39 64/127/39 63/128/39
f 63/128/40 64/127/40 66/129/40 65/130/40
f 65/130/41 66/129/41 68/131/41 67/132/41
f 60/133/42 58/134/42 70/135/42 68/136/42 66/137/42 64/138/42 62/139/42
f 67/132/43 68/131/43 70/140/43 69/141/43
f 69/141/44 70/140/44 58/142/44 57/143/44
f 57/144/45 59/145/45 61/146/45 63/147/45 65/148/45 67/149/45 69/150/45
o Cylinder.013_Cylinder.014
v 0.035448 2.624428 -0.309349
v -0.000000 3.145448 -0.000000
v 0.263960 2.624428 -0.165162
v 0.293705 2.624428 0.103395
v 0.102284 2.624428 0.294094
v -0.166159 2.624428 0.263333
v -0.309480 2.624428 0.034278
v -0.219757 2.624428 -0.220590
vt 1.000000 0.500000
vt 0.857143 1.000000
vt 0.857143 0.500000
vt 0.714286 1.000000
vt 0.714286 0.500000
vt 0.571429 1.000000
vt 0.571429 0.500000
vt 0.428571 1.000000
vt 0.428571 0.500000
vt 0.285714 1.000000
vt 0.285714 0.500000
vt 0.142857 1.000000
vt 0.142857 0.500000
vt 0.000000 1.000000
vt 0.000000 0.500000
vt 0.750000 0.490000
vt 0.937640 0.399638
vt 0.983983 0.196595
vt 0.854132 0.033767
vt 0.645868 0.033767
vt 0.516017 0.196595
vt 0.562360 0.399638
vn 0.4699 0.4741 -0.7446
vn 0.8751 0.4741 -0.0969
vn 0.6214 0.4741 0.6238
vn -0.1002 0.4741 0.8748
vn -0.7464 0.4741 0.4670
vn -0.8305 0.4741 -0.2924
vn -0.2892 0.4741 -0.8316
vn 0.0000 -1.0000 0.0000
usemtl None
s off
f 71/151/46 72/152/46 73/153/46
f 73/153/47 72/154/47 74/155/47
f 74/155/48 72/156/48 75/157/48
f 75/157/49 72/158/49 76/159/49
f 76/159/50 72/160/50 77/161/50
f 77/161/51 72/162/51 78/163/51
f 78/163/52 72/164/52 71/165/52
f 71/166/53 73/167/53 74/168/53 75/169/53 76/170/53 77/171/53 78/172/53
