# Blender v3.0.1 OBJ File: 'trees.blend'
# www.blender.org
mtllib tree000Top.mtl
o Cylinder.014_Cylinder.017
v -0.164759 0.495073 -0.650646
v -0.070466 0.793965 -0.278278
v 0.405970 0.495073 -0.534485
v 0.173631 0.793965 -0.228596
v 0.670995 0.495073 -0.015846
v 0.286981 0.793965 -0.006777
v 0.430747 0.495073 0.514726
v 0.184228 0.793965 0.220145
v -0.133862 0.495073 0.657698
v -0.057252 0.793965 0.281294
v -0.597671 0.495073 0.305410
v -0.255621 0.793965 0.130622
v -0.611421 0.495073 -0.276858
v -0.261502 0.793965 -0.118411
vt 1.000000 0.500000
vt 1.000000 1.000000
vt 0.857143 1.000000
vt 0.857143 0.500000
vt 0.714286 1.000000
vt 0.714286 0.500000
vt 0.571429 1.000000
vt 0.571429 0.500000
vt 0.428571 1.000000
vt 0.428571 0.500000
vt 0.285714 1.000000
vt 0.285714 0.500000
vt 0.437640 0.399638
vt 0.250000 0.490000
vt 0.062360 0.399638
vt 0.016017 0.196595
vt 0.145868 0.033767
vt 0.354132 0.033767
vt 0.483983 0.196595
vt 0.142857 1.000000
vt 0.142857 0.500000
vt 0.000000 1.000000
vt 0.000000 0.500000
vt 0.750000 0.490000
vt 0.937640 0.399638
vt 0.983983 0.196595
vt 0.854132 0.033767
vt 0.645868 0.033767
vt 0.516017 0.196595
vt 0.562360 0.399638
vn 0.1304 0.7568 -0.6405
vn 0.5820 0.7568 -0.2974
vn 0.5954 0.7568 0.2696
vn 0.1604 0.7568 0.6336
vn -0.3953 0.7568 0.5205
vn 0.0000 1.0000 -0.0000
vn -0.6534 0.7568 0.0154
vn -0.4195 0.7568 -0.5013
vn 0.0000 -1.0000 -0.0000
usemtl None
s off
f 1/1/1 2/2/1 4/3/1 3/4/1
f 3/4/2 4/3/2 6/5/2 5/6/2
f 5/6/3 6/5/3 8/7/3 7/8/3
f 7/8/4 8/7/4 10/9/4 9/10/4
f 9/10/5 10/9/5 12/11/5 11/12/5
f 4/13/6 2/14/6 14/15/6 12/16/6 10/17/6 8/18/6 6/19/6
f 11/12/7 12/11/7 14/20/7 13/21/7
f 13/21/8 14/20/8 2/22/8 1/23/8
f 1/24/9 3/25/9 5/26/9 7/27/9 9/28/9 11/29/9 13/30/9
o Cylinder.015_Cylinder.018
v -0.450865 0.776854 -0.368122
v -0.178258 1.061701 -0.149646
v 0.005483 0.766165 -0.579753
v 0.007253 1.057355 -0.235676
v 0.455425 0.755625 -0.354818
v 0.190159 1.053071 -0.144237
v 0.560147 0.753172 0.137302
v 0.232730 1.052074 0.055815
v 0.240790 0.760653 0.526031
v 0.102908 1.055115 0.213837
v -0.262163 0.772434 0.518648
v -0.101548 1.059904 0.210836
v -0.569979 0.779645 0.120712
v -0.226679 1.062835 0.049071
vt 1.000000 0.500000
vt 1.000000 1.000000
vt 0.857143 1.000000
vt 0.857143 0.500000
vt 0.714286 1.000000
vt 0.714286 0.500000
vt 0.571429 1.000000
vt 0.571429 0.500000
vt 0.428571 1.000000
vt 0.428571 0.500000
vt 0.285714 1.000000
vt 0.285714 0.500000
vt 0.437640 0.399638
vt 0.250000 0.490000
vt 0.062360 0.399638
vt 0.016017 0.196595
vt 0.145868 0.033767
vt 0.354132 0.033767
vt 0.483983 0.196595
vt 0.142857 1.000000
vt 0.142857 0.500000
vt 0.000000 1.000000
vt 0.000000 0.500000
vt 0.750000 0.490000
vt 0.937640 0.399638
vt 0.983983 0.196595
vt 0.854132 0.033767
vt 0.645868 0.033767
vt 0.516017 0.196595
vt 0.562360 0.399638
vn -0.2708 0.7355 -0.6211
vn 0.3230 0.7216 -0.6123
vn 0.6864 0.7131 -0.1425
vn 0.5458 0.7164 0.4346
vn 0.0070 0.7290 0.6845
vn 0.0234 0.9997 -0.0000
vn -0.5242 0.7414 0.4189
vn -0.6478 0.7443 -0.1621
vn -0.0234 -0.9997 -0.0000
usemtl None
s off
f 15/31/10 16/32/10 18/33/10 17/34/10
f 17/34/11 18/33/11 20/35/11 19/36/11
f 19/36/12 20/35/12 22/37/12 21/38/12
f 21/38/13 22/37/13 24/39/13 23/40/13
f 23/40/14 24/39/14 26/41/14 25/42/14
f 18/43/15 16/44/15 28/45/15 26/46/15 24/47/15 22/48/15 20/49/15
f 25/42/16 26/41/16 28/50/16 27/51/16
f 27/51/17 28/50/17 16/52/17 15/53/17
f 15/54/18 17/55/18 19/56/18 21/57/18 23/58/18 25/59/18 27/60/18
o Cylinder.016_Cylinder.019
v -0.407201 1.044093 -0.353616
v -0.165532 1.313167 -0.143749
v 0.022582 1.044093 -0.538839
v 0.009180 1.313167 -0.219044
v 0.435361 1.044093 -0.318305
v 0.176979 1.313167 -0.129394
v 0.520304 1.044093 0.141919
v 0.211509 1.313167 0.057692
v 0.213447 1.044093 0.495275
v 0.086769 1.313167 0.201335
v -0.254139 1.044093 0.475679
v -0.103310 1.313167 0.193369
v -0.530354 1.044093 0.097887
v -0.215595 1.313167 0.039792
vt 1.000000 0.500000
vt 1.000000 1.000000
vt 0.857143 1.000000
vt 0.857143 0.500000
vt 0.714286 1.000000
vt 0.714286 0.500000
vt 0.571429 1.000000
vt 0.571429 0.500000
vt 0.428571 1.000000
vt 0.428571 0.500000
vt 0.285714 1.000000
vt 0.285714 0.500000
vt 0.437640 0.399638
vt 0.250000 0.490000
vt 0.062360 0.399638
vt 0.016017 0.196595
vt 0.145868 0.033767
vt 0.354132 0.033767
vt 0.483983 0.196595
vt 0.142857 1.000000
vt 0.142857 0.500000
vt 0.000000 1.000000
vt 0.000000 0.500000
vt 0.750000 0.490000
vt 0.937640 0.399638
vt 0.983983 0.196595
vt 0.854132 0.033767
vt 0.645868 0.033767
vt 0.516017 0.196595
vt 0.562360 0.399638
vn -0.2700 0.7312 -0.6265
vn 0.3215 0.7312 -0.6017
vn 0.6709 0.7312 -0.1238
vn 0.5151 0.7312 0.4473
vn -0.0286 0.7312 0.6816
vn 0.0000 1.0000 0.0000
vn -0.5507 0.7312 0.4026
vn -0.6582 0.7312 -0.1795
vn 0.0000 -1.0000 -0.0000
usemtl None
s off
f 29/61/19 30/62/19 32/63/19 31/64/19
f 31/64/20 32/63/20 34/65/20 33/66/20
f 33/66/21 34/65/21 36/67/21 35/68/21
f 35/68/22 36/67/22 38/69/22 37/70/22
f 37/70/23 38/69/23 40/71/23 39/72/23
f 32/73/24 30/74/24 42/75/24 40/76/24 38/77/24 36/78/24 34/79/24
f 39/72/25 40/71/25 42/80/25 41/81/25
f 41/81/26 42/80/26 30/82/26 29/83/26
f 29/84/27 31/85/27 33/86/27 35/87/27 37/88/27 39/89/27 41/90/27
o Cylinder.017_Cylinder.020
v -0.182872 1.315372 -0.402709
v -0.062413 1.633445 -0.121904
v 0.202068 1.327160 -0.397002
v 0.054112 1.637014 -0.120177
v 0.437615 1.334374 -0.092345
v 0.125415 1.639197 -0.027954
v 0.346396 1.331580 0.281850
v 0.097802 1.638352 0.085319
v -0.002898 1.320884 0.443806
v -0.007933 1.635114 0.134345
v -0.347242 1.310338 0.271567
v -0.112169 1.631922 0.082206
v -0.427338 1.307886 -0.105168
v -0.136415 1.631179 -0.031835
vt 1.000000 0.500000
vt 1.000000 1.000000
vt 0.857143 1.000000
vt 0.857143 0.500000
vt 0.714286 1.000000
vt 0.714286 0.500000
vt 0.571429 1.000000
vt 0.571429 0.500000
vt 0.428571 1.000000
vt 0.428571 0.500000
vt 0.285714 1.000000
vt 0.285714 0.500000
vt 0.437640 0.399638
vt 0.250000 0.490000
vt 0.062360 0.399638
vt 0.016017 0.196595
vt 0.145868 0.033767
vt 0.354132 0.033767
vt 0.483983 0.196595
vt 0.142857 1.000000
vt 0.142857 0.500000
vt 0.000000 1.000000
vt 0.000000 0.500000
vt 0.750000 0.490000
vt 0.937640 0.399638
vt 0.983983 0.196595
vt 0.854132 0.033767
vt 0.645868 0.033767
vt 0.516017 0.196595
vt 0.562360 0.399638
vn -0.0092 0.6638 -0.7479
vn 0.5710 0.6815 -0.4576
vn 0.7060 0.6857 0.1772
vn 0.2940 0.6730 0.6786
vn -0.3546 0.6532 0.6690
vn -0.0306 0.9995 -0.0000
vn -0.7516 0.6410 0.1556
vn -0.5979 0.6457 -0.4750
vn 0.0306 -0.9995 -0.0000
usemtl None
s off
f 43/91/28 44/92/28 46/93/28 45/94/28
f 45/94/29 46/93/29 48/95/29 47/96/29
f 47/96/30 48/95/30 50/97/30 49/98/30
f 49/98/31 50/97/31 52/99/31 51/100/31
f 51/100/32 52/99/32 54/101/32 53/102/32
f 46/103/33 44/104/33 56/105/33 54/106/33 52/107/33 50/108/33 48/109/33
f 53/102/34 54/101/34 56/110/34 55/111/34
f 55/111/35 56/110/35 44/112/35 43/113/35
f 43/114/36 45/115/36 47/116/36 49/117/36 51/118/36 53/119/36 55/120/36
o Cylinder.018_Cylinder.021
v 0.105343 1.603294 -0.310286
v 0.000000 2.032197 -0.000000
v 0.308272 1.603294 -0.111100
v 0.279065 1.603294 0.171747
v 0.039717 1.603294 0.325265
v -0.229539 1.603294 0.233851
v -0.325948 1.603294 -0.033657
v -0.176911 1.603294 -0.275821
vt 1.000000 0.500000
vt 0.857143 1.000000
vt 0.857143 0.500000
vt 0.714286 1.000000
vt 0.714286 0.500000
vt 0.571429 1.000000
vt 0.571429 0.500000
vt 0.428571 1.000000
vt 0.428571 0.500000
vt 0.285714 1.000000
vt 0.285714 0.500000
vt 0.142857 1.000000
vt 0.142857 0.500000
vt 0.000000 1.000000
vt 0.000000 0.500000
vt 0.750000 0.490000
vt 0.937640 0.399638
vt 0.983983 0.196595
vt 0.854132 0.033767
vt 0.645868 0.033767
vt 0.516017 0.196595
vt 0.562360 0.399638
vn 0.5770 0.5670 -0.5879
vn 0.8194 0.5670 0.0846
vn 0.4447 0.5670 0.6934
vn -0.2648 0.5670 0.7800
vn -0.7749 0.5670 0.2793
vn -0.7015 0.5670 -0.4317
vn -0.0998 0.5670 -0.8176
vn 0.0000 -1.0000 0.0000
usemtl None
s off
f 57/121/37 58/122/37 59/123/37
f 59/123/38 58/124/38 60/125/38
f 60/125/39 58/126/39 61/127/39
f 61/127/40 58/128/40 62/129/40
f 62/129/41 58/130/41 63/131/41
f 63/131/42 58/132/42 64/133/42
f 64/133/43 58/134/43 57/135/43
f 57/136/44 59/137/44 60/138/44 61/139/44 62/140/44 63/141/44 64/142/44
