# Blender v3.0.1 OBJ File: 'trees.blend'
# www.blender.org
mtllib tree003Top.mtl
o Cylinder.001_Cylinder.002
v -0.005786 1.187678 -0.891538
v 0.005786 1.587472 -0.412611
v 0.690955 1.167510 -0.555865
v 0.328244 1.578138 -0.257259
v 0.863036 1.162529 0.198386
v 0.407884 1.575833 0.091815
v 0.380876 1.176485 0.803248
v 0.184737 1.582292 0.371750
v -0.392448 1.198870 0.803248
v -0.173164 1.592652 0.371750
v -0.874608 1.212826 0.198386
v -0.396312 1.599111 0.091815
v -0.702527 1.207845 -0.555865
v -0.316671 1.596806 -0.257259
vt 1.000000 0.500000
vt 1.000000 1.000000
vt 0.857143 1.000000
vt 0.857143 0.500000
vt 0.714286 1.000000
vt 0.714286 0.500000
vt 0.571429 1.000000
vt 0.571429 0.500000
vt 0.428571 1.000000
vt 0.428571 0.500000
vt 0.285714 1.000000
vt 0.285714 0.500000
vt 0.437640 0.399638
vt 0.250000 0.490000
vt 0.062360 0.399638
vt 0.016017 0.196595
vt 0.145868 0.033767
vt 0.354132 0.033767
vt 0.483983 0.196595
vt 0.142857 1.000000
vt 0.142857 0.500000
vt 0.000000 1.000000
vt 0.000000 0.500000
vt 0.750000 0.490000
vt 0.937640 0.399638
vt 0.983983 0.196595
vt 0.854132 0.033767
vt 0.645868 0.033767
vt 0.516017 0.196595
vt 0.562360 0.399638
vn 0.3160 0.7246 -0.6125
vn 0.6837 0.7139 -0.1513
vn 0.5525 0.7177 0.4238
vn 0.0212 0.7331 0.6798
vn -0.5100 0.7485 0.4238
vn 0.0289 0.9996 0.0000
vn -0.6413 0.7523 -0.1513
vn -0.2736 0.7416 -0.6125
vn -0.0289 -0.9996 0.0000
usemtl None
s off
f 1/1/1 2/2/1 4/3/1 3/4/1
f 3/4/2 4/3/2 6/5/2 5/6/2
f 5/6/3 6/5/3 8/7/3 7/8/3
f 7/8/4 8/7/4 10/9/4 9/10/4
f 9/10/5 10/9/5 12/11/5 11/12/5
f 4/13/6 2/14/6 14/15/6 12/16/6 10/17/6 8/18/6 6/19/6
f 11/12/7 12/11/7 14/20/7 13/21/7
f 13/21/8 14/20/8 2/22/8 1/23/8
f 1/24/9 3/25/9 5/26/9 7/27/9 9/28/9 11/29/9 13/30/9
o Cylinder.002_Cylinder.003
v -0.318238 1.542179 -0.743662
v -0.136109 1.906398 -0.318750
v 0.383380 1.542262 -0.712291
v 0.163970 1.906433 -0.305333
v 0.796305 1.543775 -0.144187
v 0.340575 1.907080 -0.062358
v 0.609596 1.545577 0.532857
v 0.260721 1.907851 0.227210
v -0.036151 1.546312 0.809013
v -0.015462 1.908165 0.345320
v -0.654676 1.545427 0.476329
v -0.280001 1.907787 0.203033
v -0.780216 1.543587 -0.214676
v -0.333694 1.907000 -0.092506
vt 1.000000 0.500000
vt 1.000000 1.000000
vt 0.857143 1.000000
vt 0.857143 0.500000
vt 0.714286 1.000000
vt 0.714286 0.500000
vt 0.571429 1.000000
vt 0.571429 0.500000
vt 0.428571 1.000000
vt 0.428571 0.500000
vt 0.285714 1.000000
vt 0.285714 0.500000
vt 0.437640 0.399638
vt 0.250000 0.490000
vt 0.062360 0.399638
vt 0.016017 0.196595
vt 0.145868 0.033767
vt 0.354132 0.033767
vt 0.483983 0.196595
vt 0.142857 1.000000
vt 0.142857 0.500000
vt 0.000000 1.000000
vt 0.000000 0.500000
vt 0.750000 0.490000
vt 0.937640 0.399638
vt 0.983983 0.196595
vt 0.854132 0.033767
vt 0.645868 0.033767
vt 0.516017 0.196595
vt 0.562360 0.399638
vn 0.0293 0.7527 -0.6577
vn 0.5310 0.7534 -0.3879
vn 0.6328 0.7549 0.1725
vn 0.2581 0.7560 0.6015
vn -0.3109 0.7560 0.5761
vn -0.0000 1.0000 -0.0027
vn -0.6458 0.7547 0.1153
vn -0.4944 0.7533 -0.4338
vn -0.0000 -1.0000 0.0027
usemtl None
s off
f 15/31/10 16/32/10 18/33/10 17/34/10
f 17/34/11 18/33/11 20/35/11 19/36/11
f 19/36/12 20/35/12 22/37/12 21/38/12
f 21/38/13 22/37/13 24/39/13 23/40/13
f 23/40/14 24/39/14 26/41/14 25/42/14
f 18/43/15 16/44/15 28/45/15 26/46/15 24/47/15 22/48/15 20/49/15
f 25/42/16 26/41/16 28/50/16 27/51/16
f 27/51/17 28/50/17 16/52/17 15/53/17
f 15/54/18 17/55/18 19/56/18 21/57/18 23/58/18 25/59/18 27/60/18
o Cylinder.003_Cylinder.004
v -0.514892 1.864490 -0.469846
v -0.209309 2.223575 -0.196074
v 0.048769 1.860117 -0.694276
v 0.019825 2.221797 -0.287307
v 0.575706 1.865975 -0.393601
v 0.234031 2.224179 -0.165080
v 0.669124 1.877653 0.205764
v 0.272006 2.228926 0.078568
v 0.258678 1.886357 0.652485
v 0.105155 2.232465 0.260166
v -0.346558 1.885533 0.610172
v -0.140880 2.232129 0.242965
v -0.690829 1.875801 0.110688
v -0.280829 2.228173 0.039919
vt 1.000000 0.500000
vt 1.000000 1.000000
vt 0.857143 1.000000
vt 0.857143 0.500000
vt 0.714286 1.000000
vt 0.714286 0.500000
vt 0.571429 1.000000
vt 0.571429 0.500000
vt 0.428571 1.000000
vt 0.428571 0.500000
vt 0.285714 1.000000
vt 0.285714 0.500000
vt 0.437640 0.399638
vt 0.250000 0.490000
vt 0.062360 0.399638
vt 0.016017 0.196595
vt 0.145868 0.033767
vt 0.354132 0.033767
vt 0.483983 0.196595
vt 0.142857 1.000000
vt 0.142857 0.500000
vt 0.000000 1.000000
vt 0.000000 0.500000
vt 0.750000 0.490000
vt 0.937640 0.399638
vt 0.983983 0.196595
vt 0.854132 0.033767
vt 0.645868 0.033767
vt 0.516017 0.196595
vt 0.562360 0.399638
vn -0.2543 0.7139 -0.6525
vn 0.3406 0.7147 -0.6109
vn 0.6790 0.7242 -0.1199
vn 0.5061 0.7354 0.4507
vn -0.0479 0.7396 0.6713
vn 0.0000 0.9998 -0.0195
vn -0.5659 0.7339 0.3757
vn -0.6577 0.7224 -0.2134
vn 0.0000 -0.9998 0.0195
usemtl None
s off
f 29/61/19 30/62/19 32/63/19 31/64/19
f 31/64/20 32/63/20 34/65/20 33/66/20
f 33/66/21 34/65/21 36/67/21 35/68/21
f 35/68/22 36/67/22 38/69/22 37/70/22
f 37/70/23 38/69/23 40/71/23 39/72/23
f 32/73/24 30/74/24 42/75/24 40/76/24 38/77/24 36/78/24 34/79/24
f 39/72/25 40/71/25 42/80/25 41/81/25
f 41/81/26 42/80/26 30/82/26 29/83/26
f 29/84/27 31/85/27 33/86/27 35/87/27 37/88/27 39/89/27 41/90/27
o Cylinder.004_Cylinder.005
v -0.367702 2.210552 -0.536788
v -0.148520 2.536549 -0.218210
v 0.190197 2.208336 -0.621712
v 0.078272 2.535647 -0.252733
v 0.604438 2.206690 -0.238474
v 0.246665 2.534978 -0.096942
v 0.563088 2.206854 0.324339
v 0.229856 2.535045 0.131847
v 0.097285 2.208705 0.642919
v 0.040502 2.535798 0.261354
v -0.442212 2.210848 0.477367
v -0.178809 2.536669 0.194055
v -0.649151 2.211670 -0.047651
v -0.262932 2.537003 -0.019371
vt 1.000000 0.500000
vt 1.000000 1.000000
vt 0.857143 1.000000
vt 0.857143 0.500000
vt 0.714286 1.000000
vt 0.714286 0.500000
vt 0.571429 1.000000
vt 0.571429 0.500000
vt 0.428571 1.000000
vt 0.428571 0.500000
vt 0.285714 1.000000
vt 0.285714 0.500000
vt 0.437640 0.399638
vt 0.250000 0.490000
vt 0.062360 0.399638
vt 0.016017 0.196595
vt 0.145868 0.033767
vt 0.354132 0.033767
vt 0.483983 0.196595
vt 0.142857 1.000000
vt 0.142857 0.500000
vt 0.000000 1.000000
vt 0.000000 0.500000
vt 0.750000 0.490000
vt 0.937640 0.399638
vt 0.983983 0.196595
vt 0.854132 0.033767
vt 0.645868 0.033767
vt 0.516017 0.196595
vt 0.562360 0.399638
vn -0.1002 0.7290 -0.6771
vn 0.4680 0.7268 -0.5027
vn 0.6859 0.7259 0.0502
vn 0.3895 0.7271 0.5653
vn -0.1980 0.7294 0.6548
vn 0.0040 1.0000 -0.0000
vn -0.6343 0.7312 0.2512
vn -0.5907 0.7310 -0.3416
vn -0.0040 -1.0000 -0.0000
usemtl None
s off
f 43/91/28 44/92/28 46/93/28 45/94/28
f 45/94/29 46/93/29 48/95/29 47/96/29
f 47/96/30 48/95/30 50/97/30 49/98/30
f 49/98/31 50/97/31 52/99/31 51/100/31
f 51/100/32 52/99/32 54/101/32 53/102/32
f 46/103/33 44/104/33 56/105/33 54/106/33 52/107/33 50/108/33 48/109/33
f 53/102/34 54/101/34 56/110/34 55/111/34
f 55/111/35 56/110/35 44/112/35 43/113/35
f 43/114/36 45/115/36 47/116/36 49/117/36 51/118/36 53/119/36 55/120/36
o Cylinder.005_Cylinder.006
v -0.149606 2.524954 -0.513885
v -0.045287 2.906681 -0.155558
v 0.308493 2.524954 -0.437369
v 0.093384 2.906681 -0.132396
v 0.534291 2.524954 -0.031505
v 0.161735 2.906681 -0.009537
v 0.357757 2.524954 0.398082
v 0.108296 2.906681 0.120504
v -0.088176 2.524954 0.527906
v -0.026692 2.906681 0.159802
v -0.467710 2.524954 0.260205
v -0.141580 2.906681 0.078767
v -0.495049 2.524954 -0.203435
v -0.149856 2.906681 -0.061582
vt 1.000000 0.500000
vt 1.000000 1.000000
vt 0.857143 1.000000
vt 0.857143 0.500000
vt 0.714286 1.000000
vt 0.714286 0.500000
vt 0.571429 1.000000
vt 0.571429 0.500000
vt 0.428571 1.000000
vt 0.428571 0.500000
vt 0.285714 1.000000
vt 0.285714 0.500000
vt 0.437640 0.399638
vt 0.250000 0.490000
vt 0.062360 0.399638
vt 0.016017 0.196595
vt 0.145868 0.033767
vt 0.354132 0.033767
vt 0.483983 0.196595
vt 0.142857 1.000000
vt 0.142857 0.500000
vt 0.000000 1.000000
vt 0.000000 0.500000
vt 0.750000 0.490000
vt 0.937640 0.399638
vt 0.983983 0.196595
vt 0.854132 0.033767
vt 0.645868 0.033767
vt 0.516017 0.196595
vt 0.562360 0.399638
vn 0.1236 0.6610 -0.7401
vn 0.6557 0.6610 -0.3648
vn 0.6941 0.6610 0.2852
vn 0.2098 0.6610 0.7205
vn -0.4325 0.6610 0.6132
vn 0.0000 1.0000 0.0000
vn -0.7491 0.6610 0.0442
vn -0.5016 0.6610 -0.5581
vn 0.0000 -1.0000 -0.0000
usemtl None
s off
f 57/121/37 58/122/37 60/123/37 59/124/37
f 59/124/38 60/123/38 62/125/38 61/126/38
f 61/126/39 62/125/39 64/127/39 63/128/39
f 63/128/40 64/127/40 66/129/40 65/130/40
f 65/130/41 66/129/41 68/131/41 67/132/41
f 60/133/42 58/134/42 70/135/42 68/136/42 66/137/42 64/138/42 62/139/42
f 67/132/43 68/131/43 70/140/43 69/141/43
f 69/141/44 70/140/44 58/142/44 57/143/44
f 57/144/45 59/145/45 61/146/45 63/147/45 65/148/45 67/149/45 69/150/45
o Cylinder.006_Cylinder.007
v 0.044983 2.878437 -0.392562
v -0.000000 3.399457 -0.000000
v 0.334964 2.878437 -0.209590
v 0.372710 2.878437 0.131208
v 0.129798 2.878437 0.373204
v -0.210855 2.878437 0.334169
v -0.392730 2.878437 0.043498
v -0.278871 2.878437 -0.279928
vt 1.000000 0.500000
vt 0.857143 1.000000
vt 0.857143 0.500000
vt 0.714286 1.000000
vt 0.714286 0.500000
vt 0.571429 1.000000
vt 0.571429 0.500000
vt 0.428571 1.000000
vt 0.428571 0.500000
vt 0.285714 1.000000
vt 0.285714 0.500000
vt 0.142857 1.000000
vt 0.142857 0.500000
vt 0.000000 1.000000
vt 0.000000 0.500000
vt 0.750000 0.490000
vt 0.937640 0.399638
vt 0.983983 0.196595
vt 0.854132 0.033767
vt 0.645868 0.033767
vt 0.516017 0.196595
vt 0.562360 0.399638
vn 0.4406 0.5642 -0.6983
vn 0.8206 0.5642 -0.0909
vn 0.5827 0.5642 0.5849
vn -0.0940 0.5642 0.8203
vn -0.6999 0.5642 0.4380
vn -0.7788 0.5642 -0.2742
vn -0.2712 0.5642 -0.7798
vn 0.0000 -1.0000 0.0000
usemtl None
s off
f 71/151/46 72/152/46 73/153/46
f 73/153/47 72/154/47 74/155/47
f 74/155/48 72/156/48 75/157/48
f 75/157/49 72/158/49 76/159/49
f 76/159/50 72/160/50 77/161/50
f 77/161/51 72/162/51 78/163/51
f 78/163/52 72/164/52 71/165/52
f 71/166/53 73/167/53 74/168/53 75/169/53 76/170/53 77/171/53 78/172/53
