# Blender v3.0.1 OBJ File: 'trees.blend'
# www.blender.org
mtllib tree004Top.mtl
o Cylinder.024_Cylinder.030
v 0.129175 1.134136 -0.882154
v 0.069165 1.582463 -0.406825
v 0.766835 1.113966 -0.444412
v 0.364279 1.573128 -0.204234
v 0.822223 1.108985 0.327239
v 0.389913 1.570823 0.152893
v 0.253631 1.122943 0.851729
v 0.126764 1.577283 0.395631
v -0.510780 1.145330 0.734107
v -0.227012 1.587644 0.341194
v -0.895392 1.159288 0.062944
v -0.405014 1.594104 0.030574
v -0.610586 1.154306 -0.656360
v -0.273203 1.591798 -0.302325
vt 1.000000 0.500000
vt 1.000000 1.000000
vt 0.857143 1.000000
vt 0.857143 0.500000
vt 0.714286 1.000000
vt 0.714286 0.500000
vt 0.571429 1.000000
vt 0.571429 0.500000
vt 0.428571 1.000000
vt 0.428571 0.500000
vt 0.285714 1.000000
vt 0.285714 0.500000
vt 0.437640 0.399638
vt 0.250000 0.490000
vt 0.062360 0.399638
vt 0.016017 0.196595
vt 0.145868 0.033767
vt 0.354132 0.033767
vt 0.483983 0.196595
vt 0.142857 1.000000
vt 0.142857 0.500000
vt 0.000000 1.000000
vt 0.000000 0.500000
vt 0.750000 0.490000
vt 0.937640 0.399638
vt 0.983983 0.196595
vt 0.854132 0.033767
vt 0.645868 0.033767
vt 0.516017 0.196595
vt 0.562360 0.399638
vn 0.4275 0.6840 -0.5912
vn 0.7383 0.6727 -0.0487
vn 0.5081 0.6767 0.5328
vn -0.0898 0.6930 0.7153
vn -0.6051 0.7093 0.3615
vn 0.0286 0.9996 0.0044
vn -0.6499 0.7134 -0.2623
vn -0.1903 0.7021 -0.6862
vn -0.0286 -0.9996 -0.0044
usemtl None
s off
f 1/1/1 2/2/1 4/3/1 3/4/1
f 3/4/2 4/3/2 6/5/2 5/6/2
f 5/6/3 6/5/3 8/7/3 7/8/3
f 7/8/4 8/7/4 10/9/4 9/10/4
f 9/10/5 10/9/5 12/11/5 11/12/5
f 4/13/6 2/14/6 14/15/6 12/16/6 10/17/6 8/18/6 6/19/6
f 11/12/7 12/11/7 14/20/7 13/21/7
f 13/21/8 14/20/8 2/22/8 1/23/8
f 1/24/9 3/25/9 5/26/9 7/27/9 9/28/9 11/29/9 13/30/9
o Cylinder.025_Cylinder.031
v -0.764498 1.531928 -0.264131
v -0.327545 1.940257 -0.113488
v -0.269713 1.532011 -0.762569
v -0.115928 1.940293 -0.326667
v 0.428474 1.533523 -0.686502
v 0.182683 1.940940 -0.294133
v 0.804313 1.535326 -0.093211
v 0.343427 1.941710 -0.040386
v 0.574790 1.536061 0.570544
v 0.245262 1.942025 0.243499
v -0.087259 1.535175 0.804942
v -0.037893 1.941646 0.343749
v -0.683298 1.533336 0.433477
v -0.292816 1.940859 0.184876
vt 1.000000 0.500000
vt 1.000000 1.000000
vt 0.857143 1.000000
vt 0.857143 0.500000
vt 0.714286 1.000000
vt 0.714286 0.500000
vt 0.571429 1.000000
vt 0.571429 0.500000
vt 0.428571 1.000000
vt 0.428571 0.500000
vt 0.285714 1.000000
vt 0.285714 0.500000
vt 0.437640 0.399638
vt 0.250000 0.490000
vt 0.062360 0.399638
vt 0.016017 0.196595
vt 0.145868 0.033767
vt 0.354132 0.033767
vt 0.483983 0.196595
vt 0.142857 1.000000
vt 0.142857 0.500000
vt 0.000000 1.000000
vt 0.000000 0.500000
vt 0.750000 0.490000
vt 0.937640 0.399638
vt 0.983983 0.196595
vt 0.854132 0.033767
vt 0.645868 0.033767
vt 0.516017 0.196595
vt 0.562360 0.399638
vn -0.4970 0.7139 -0.4933
vn 0.0742 0.7146 -0.6955
vn 0.5885 0.7162 -0.3750
vn 0.6586 0.7174 0.2270
vn 0.2317 0.7174 0.6570
vn -0.0020 1.0000 -0.0018
vn -0.3708 0.7161 0.5914
vn -0.6951 0.7145 0.0795
vn 0.0020 -1.0000 0.0018
usemtl None
s off
f 15/31/10 16/32/10 18/33/10 17/34/10
f 17/34/11 18/33/11 20/35/11 19/36/11
f 19/36/12 20/35/12 22/37/12 21/38/12
f 21/38/13 22/37/13 24/39/13 23/40/13
f 23/40/14 24/39/14 26/41/14 25/42/14
f 18/43/15 16/44/15 28/45/15 26/46/15 24/47/15 22/48/15 20/49/15
f 25/42/16 26/41/16 28/50/16 27/51/16
f 27/51/17 28/50/17 16/52/17 15/53/17
f 15/54/18 17/55/18 19/56/18 21/57/18 23/58/18 25/59/18 27/60/18
o Cylinder.026_Cylinder.032
v -0.514903 1.894281 -0.469486
v -0.209314 2.296312 -0.196544
v 0.048772 1.889908 -0.693922
v 0.019826 2.294534 -0.287780
v 0.575721 1.895767 -0.393241
v 0.234037 2.296916 -0.165550
v 0.669140 1.907445 0.206138
v 0.272013 2.301663 0.078104
v 0.258683 1.916149 0.652871
v 0.105157 2.305202 0.259706
v -0.346568 1.915325 0.610559
v -0.140883 2.304866 0.242506
v -0.690846 1.905592 0.111063
v -0.280836 2.300910 0.039455
vt 1.000000 0.500000
vt 1.000000 1.000000
vt 0.857143 1.000000
vt 0.857143 0.500000
vt 0.714286 1.000000
vt 0.714286 0.500000
vt 0.571429 1.000000
vt 0.571429 0.500000
vt 0.428571 1.000000
vt 0.428571 0.500000
vt 0.285714 1.000000
vt 0.285714 0.500000
vt 0.437640 0.399638
vt 0.250000 0.490000
vt 0.062360 0.399638
vt 0.016017 0.196595
vt 0.145868 0.033767
vt 0.354132 0.033767
vt 0.483983 0.196595
vt 0.142857 1.000000
vt 0.142857 0.500000
vt 0.000000 1.000000
vt 0.000000 0.500000
vt 0.750000 0.490000
vt 0.937640 0.399638
vt 0.983983 0.196595
vt 0.854132 0.033767
vt 0.645868 0.033767
vt 0.516017 0.196595
vt 0.562360 0.399638
vn -0.2692 0.6726 -0.6893
vn 0.3607 0.6735 -0.6452
vn 0.7190 0.6836 -0.1254
vn 0.5359 0.6954 0.4788
vn -0.0508 0.6999 0.7124
vn 0.0000 0.9998 -0.0195
vn -0.5992 0.6938 0.3995
vn -0.6964 0.6817 -0.2243
vn -0.0000 -0.9998 0.0195
usemtl None
s off
f 29/61/19 30/62/19 32/63/19 31/64/19
f 31/64/20 32/63/20 34/65/20 33/66/20
f 33/66/21 34/65/21 36/67/21 35/68/21
f 35/68/22 36/67/22 38/69/22 37/70/22
f 37/70/23 38/69/23 40/71/23 39/72/23
f 32/73/24 30/74/24 42/75/24 40/76/24 38/77/24 36/78/24 34/79/24
f 39/72/25 40/71/25 42/80/25 41/81/25
f 41/81/26 42/80/26 30/82/26 29/83/26
f 29/84/27 31/85/27 33/86/27 35/87/27 37/88/27 39/89/27 41/90/27
o Cylinder.027_Cylinder.033
v -0.370184 2.286666 -0.536788
v -0.145336 2.649012 -0.218210
v 0.187619 2.276010 -0.621713
v 0.081417 2.644680 -0.252733
v 0.601788 2.268097 -0.238475
v 0.249781 2.641464 -0.096943
v 0.560445 2.268887 0.324339
v 0.232974 2.641784 0.131847
v 0.094722 2.277784 0.642919
v 0.043653 2.645401 0.261354
v -0.444681 2.288089 0.477368
v -0.175620 2.649590 0.194055
v -0.651584 2.292042 -0.047651
v -0.259729 2.651197 -0.019371
vt 1.000000 0.500000
vt 1.000000 1.000000
vt 0.857143 1.000000
vt 0.857143 0.500000
vt 0.714286 1.000000
vt 0.714286 0.500000
vt 0.571429 1.000000
vt 0.571429 0.500000
vt 0.428571 1.000000
vt 0.428571 0.500000
vt 0.285714 1.000000
vt 0.285714 0.500000
vt 0.437640 0.399638
vt 0.250000 0.490000
vt 0.062360 0.399638
vt 0.016017 0.196595
vt 0.145868 0.033767
vt 0.354132 0.033767
vt 0.483983 0.196595
vt 0.142857 1.000000
vt 0.142857 0.500000
vt 0.000000 1.000000
vt 0.000000 0.500000
vt 0.750000 0.490000
vt 0.937640 0.399638
vt 0.983983 0.196595
vt 0.854132 0.033767
vt 0.645868 0.033767
vt 0.516017 0.196595
vt 0.562360 0.399638
vn -0.0960 0.6902 -0.7172
vn 0.5057 0.6787 -0.5325
vn 0.7366 0.6743 0.0532
vn 0.4226 0.6803 0.5988
vn -0.1996 0.6922 0.6936
vn 0.0191 0.9998 0.0000
vn -0.6617 0.7010 0.2660
vn -0.6156 0.7001 -0.3618
vn -0.0191 -0.9998 0.0000
usemtl None
s off
f 43/91/28 44/92/28 46/93/28 45/94/28
f 45/94/29 46/93/29 48/95/29 47/96/29
f 47/96/30 48/95/30 50/97/30 49/98/30
f 49/98/31 50/97/31 52/99/31 51/100/31
f 51/100/32 52/99/32 54/101/32 53/102/32
f 46/103/33 44/104/33 56/105/33 54/106/33 52/107/33 50/108/33 48/109/33
f 53/102/34 54/101/34 56/110/34 55/111/34
f 55/111/35 56/110/35 44/112/35 43/113/35
f 43/114/36 45/115/36 47/116/36 49/117/36 51/118/36 53/119/36 55/120/36
o Cylinder.028_Cylinder.034
v 0.032853 2.633859 -0.534210
v 0.009945 3.061962 -0.161711
v 0.438145 2.633859 -0.307389
v 0.132631 3.061962 -0.093050
v 0.513506 2.633859 0.150902
v 0.155443 3.061962 0.045680
v 0.202186 2.633859 0.495561
v 0.061204 3.061962 0.150011
v -0.261384 2.633859 0.467052
v -0.079124 3.061962 0.141381
v -0.528126 2.633859 0.086844
v -0.159869 3.061962 0.026288
v -0.397179 2.633859 -0.358760
v -0.120230 3.061962 -0.108600
vt 1.000000 0.500000
vt 1.000000 1.000000
vt 0.857143 1.000000
vt 0.857143 0.500000
vt 0.714286 1.000000
vt 0.714286 0.500000
vt 0.571429 1.000000
vt 0.571429 0.500000
vt 0.428571 1.000000
vt 0.428571 0.500000
vt 0.285714 1.000000
vt 0.285714 0.500000
vt 0.437640 0.399638
vt 0.250000 0.490000
vt 0.062360 0.399638
vt 0.016017 0.196595
vt 0.145868 0.033767
vt 0.354132 0.033767
vt 0.483983 0.196595
vt 0.142857 1.000000
vt 0.142857 0.500000
vt 0.000000 1.000000
vt 0.000000 0.500000
vt 0.750000 0.490000
vt 0.937640 0.399638
vt 0.983983 0.196595
vt 0.854132 0.033767
vt 0.645868 0.033767
vt 0.516017 0.196595
vt 0.562360 0.399638
vn 0.3841 0.6177 -0.6863
vn 0.7760 0.6177 -0.1276
vn 0.5836 0.6177 0.5271
vn -0.0483 0.6177 0.7849
vn -0.6438 0.6177 0.4517
vn 0.0000 1.0000 -0.0000
vn -0.7545 0.6177 -0.2217
vn -0.2971 0.6177 -0.7282
vn 0.0000 -1.0000 -0.0000
usemtl None
s off
f 57/121/37 58/122/37 60/123/37 59/124/37
f 59/124/38 60/123/38 62/125/38 61/126/38
f 61/126/39 62/125/39 64/127/39 63/128/39
f 63/128/40 64/127/40 66/129/40 65/130/40
f 65/130/41 66/129/41 68/131/41 67/132/41
f 60/133/42 58/134/42 70/135/42 68/136/42 66/137/42 64/138/42 62/139/42
f 67/132/43 68/131/43 70/140/43 69/141/43
f 69/141/44 70/140/44 58/142/44 57/143/44
f 57/144/45 59/145/45 61/146/45 63/147/45 65/148/45 67/149/45 69/150/45
o Cylinder.029_Cylinder.035
v 0.212692 3.044641 -0.339678
v 0.000000 3.614223 0.017947
v 0.392963 3.032199 -0.048276
v 0.277325 3.018429 0.274225
v -0.047144 3.013701 0.384973
v -0.336113 3.021574 0.200574
v -0.371982 3.036120 -0.140117
v -0.127741 3.046386 -0.380551
vt 1.000000 0.500000
vt 0.857143 1.000000
vt 0.857143 0.500000
vt 0.714286 1.000000
vt 0.714286 0.500000
vt 0.571429 1.000000
vt 0.571429 0.500000
vt 0.428571 1.000000
vt 0.428571 0.500000
vt 0.285714 1.000000
vt 0.285714 0.500000
vt 0.142857 1.000000
vt 0.142857 0.500000
vt 0.000000 1.000000
vt 0.000000 0.500000
vt 0.750000 0.490000
vt 0.937640 0.399638
vt 0.983983 0.196595
vt 0.854132 0.033767
vt 0.645868 0.033767
vt 0.516017 0.196595
vt 0.562360 0.399638
vn 0.7264 0.5390 -0.4264
vn 0.8040 0.5075 0.3099
vn 0.2761 0.4854 0.8296
vn -0.4597 0.4891 0.7412
vn -0.8493 0.5160 0.1114
vn -0.5994 0.5458 -0.5856
vn 0.1019 0.5560 -0.8249
vn -0.0000 -0.9991 -0.0427
usemtl None
s off
f 71/151/46 72/152/46 73/153/46
f 73/153/47 72/154/47 74/155/47
f 74/155/48 72/156/48 75/157/48
f 75/157/49 72/158/49 76/159/49
f 76/159/50 72/160/50 77/161/50
f 77/161/51 72/162/51 78/163/51
f 78/163/52 72/164/52 71/165/52
f 71/166/53 73/167/53 74/168/53 75/169/53 76/170/53 77/171/53 78/172/53
o Cylinder.030_Cylinder.036
v 0.240858 0.745024 -0.932427
v 0.111471 1.229507 -0.431535
v 0.879252 0.745024 -0.393028
v 0.406925 1.229507 -0.181897
v 0.855551 0.745024 0.442329
v 0.395956 1.229507 0.204714
v 0.187603 0.745024 0.944603
v 0.086824 1.229507 0.437170
v -0.621614 0.745024 0.735572
v -0.287688 1.229507 0.340429
v -0.962743 0.745024 -0.027360
v -0.445565 1.229507 -0.012663
v -0.578907 0.745024 -0.769690
v -0.267923 1.229507 -0.356219
vt 1.000000 0.500000
vt 1.000000 1.000000
vt 0.857143 1.000000
vt 0.857143 0.500000
vt 0.714286 1.000000
vt 0.714286 0.500000
vt 0.571429 1.000000
vt 0.571429 0.500000
vt 0.428571 1.000000
vt 0.428571 0.500000
vt 0.285714 1.000000
vt 0.285714 0.500000
vt 0.437640 0.399638
vt 0.250000 0.490000
vt 0.062360 0.399638
vt 0.016017 0.196595
vt 0.145868 0.033767
vt 0.354132 0.033767
vt 0.483983 0.196595
vt 0.142857 1.000000
vt 0.142857 0.500000
vt 0.000000 1.000000
vt 0.000000 0.500000
vt 0.750000 0.490000
vt 0.937640 0.399638
vt 0.983983 0.196595
vt 0.854132 0.033767
vt 0.645868 0.033767
vt 0.516017 0.196595
vt 0.562360 0.399638
vn 0.4651 0.6933 -0.5505
vn 0.7203 0.6933 0.0204
vn 0.4331 0.6933 0.5760
vn -0.1802 0.6933 0.6977
vn -0.6579 0.6933 0.2941
vn 0.0000 1.0000 0.0000
vn -0.6401 0.6933 -0.3310
vn -0.1403 0.6933 -0.7068
vn 0.0000 -1.0000 0.0000
usemtl None
s off
f 79/173/54 80/174/54 82/175/54 81/176/54
f 81/176/55 82/175/55 84/177/55 83/178/55
f 83/178/56 84/177/56 86/179/56 85/180/56
f 85/180/57 86/179/57 88/181/57 87/182/57
f 87/182/58 88/181/58 90/183/58 89/184/58
f 82/185/59 80/186/59 92/187/59 90/188/59 88/189/59 86/190/59 84/191/59
f 89/184/60 90/183/60 92/192/60 91/193/60
f 91/193/61 92/192/61 80/194/61 79/195/61
f 79/196/62 81/197/62 83/198/62 85/199/62 87/200/62 89/201/62 91/202/62
