# Blender 3.5.0
# www.blender.org
mtllib pillarWithRing.mtl
o Pillar
v 0.174336 0.041884 0.174336
v 0.139333 0.072295 -0.139333
v 0.211935 0.000554 -0.211935
v 0.211935 0.041884 -0.211935
v -0.174336 0.072295 -0.174336
v -0.211935 0.000554 0.211935
v -0.174336 0.041884 0.174336
v -0.211935 0.041884 0.211935
v 0.139333 0.072295 0.139333
v -0.174336 0.072295 0.174336
v 0.174336 0.072295 0.174336
v 0.174336 0.041884 -0.174336
v 0.211935 0.000554 0.211935
v -0.211935 0.000554 -0.211935
v -0.174336 0.041884 -0.174336
v 0.211935 0.041884 0.211935
v -0.211935 0.041884 -0.211935
v -0.139333 0.072295 0.139333
v -0.139333 0.072295 -0.139333
v 0.174336 0.072295 -0.174336
v 0.139333 0.105699 -0.139333
v 0.139333 0.439007 -0.139333
v -0.139333 0.439007 -0.139333
v -0.139333 0.105699 -0.139333
v 0.139333 0.439007 0.139333
v 0.139333 0.105699 0.139333
v -0.139333 0.105699 0.139333
v -0.139333 0.439007 0.139333
v 0.139333 0.137014 -0.139333
v -0.139333 0.137014 -0.139333
v 0.139333 0.137014 0.139333
v -0.139333 0.137014 0.139333
v 0.139333 0.137014 0.174318
v 0.139333 0.105699 0.174318
v -0.139333 0.105699 0.174318
v -0.139333 0.137014 0.174318
v -0.139333 0.137014 -0.174318
v -0.139333 0.105699 -0.174318
v 0.139333 0.105699 -0.174318
v 0.139333 0.137014 -0.174318
v 0.174318 0.137014 0.139333
v 0.174318 0.105699 0.139333
v 0.174318 0.105699 -0.139333
v 0.174318 0.137014 -0.139333
v 0.174318 0.137014 0.174318
v 0.174318 0.105699 0.174318
v 0.174318 0.105699 -0.174318
v 0.174318 0.137014 -0.174318
v -0.174318 0.137014 -0.139333
v -0.174318 0.105699 -0.139333
v -0.174318 0.105699 0.139333
v -0.174318 0.137014 0.139333
v -0.174318 0.105699 0.174318
v -0.174318 0.137014 0.174318
v -0.174318 0.137014 -0.174318
v -0.174318 0.105699 -0.174318
v 0.139333 0.465830 0.174318
v -0.139333 0.465830 0.174318
v -0.139333 0.439007 0.174318
v 0.139333 0.439007 0.174318
v 0.139333 0.439007 -0.174318
v 0.139333 0.465830 -0.174318
v -0.139333 0.465830 -0.174318
v -0.139333 0.439007 -0.174318
v 0.174318 0.465830 -0.139333
v 0.174318 0.465830 0.139333
v 0.174318 0.439007 -0.139333
v 0.174318 0.439007 0.139333
v 0.174318 0.465830 0.174318
v 0.174318 0.439007 0.174318
v 0.174318 0.439007 -0.174318
v 0.174318 0.465830 -0.174318
v -0.174318 0.465830 0.139333
v -0.174318 0.465830 -0.139333
v -0.174318 0.439007 0.139333
v -0.174318 0.439007 -0.139333
v -0.174318 0.439007 0.174318
v -0.174318 0.465830 0.174318
v -0.174318 0.465830 -0.174318
v -0.174318 0.439007 -0.174318
v 0.152876 0.574382 -0.152876
v 0.152876 0.574382 0.152876
v 0.191261 0.537769 -0.152876
v -0.152876 0.574382 0.152876
v -0.152876 0.574382 -0.152876
v -0.191261 0.537769 0.191261
v -0.152876 0.537769 0.191261
v -0.191261 0.537769 0.152876
v 0.191261 0.537769 0.152876
v 0.152876 0.537769 0.191261
v -0.152876 0.537769 -0.191261
v 0.152876 0.537769 -0.191261
v 0.191261 0.537769 0.191261
v 0.191261 0.537769 -0.191261
v -0.191261 0.537769 -0.152876
v -0.191261 0.537769 -0.191261
vn -1.0000 -0.0000 -0.0000
vn -0.0000 -0.0000 -1.0000
vn 1.0000 -0.0000 -0.0000
vn -0.0000 -0.0000 1.0000
vn -0.0000 -1.0000 -0.0000
vn -0.0000 1.0000 -0.0000
vn -0.0000 -0.2292 -0.9734
vn -0.0000 -0.2292 0.9734
vn -0.9734 -0.2292 -0.0000
vn 0.9734 -0.2292 -0.0000
vn -0.5680 0.5955 -0.5680
vn -0.0000 0.7236 0.6902
vn 0.6902 0.7236 -0.0000
vn -0.0000 0.7236 -0.6902
vn 0.5680 0.5955 0.5680
vn -0.6902 0.7236 -0.0000
vn -0.5680 0.5955 0.5680
vn 0.5680 0.5955 -0.5680
vt 0.647176 0.727824
vt 0.667821 0.542821
vt 0.375000 0.500000
vt 0.625000 0.500000
vt 0.852824 0.522176
vt 0.375000 0.000000
vt 0.375000 1.000000
vt 0.125000 0.750000
vt 0.852824 0.727824
vt 0.625000 0.000000
vt 0.625000 1.000000
vt 0.875000 0.750000
vt 0.667821 0.707180
vt 0.852824 0.727824
vt 0.647176 0.727824
vt 0.647176 0.522176
vt 0.375000 0.750000
vt 0.125000 0.500000
vt 0.375000 0.250000
vt 0.852824 0.522176
vt 0.625000 0.750000
vt 0.625000 0.250000
vt 0.875000 0.500000
vt 0.832179 0.707179
vt 0.832179 0.542821
vt 0.647176 0.522176
vt 0.667821 0.542821
vt 0.667821 0.542821
vt 0.832179 0.542821
vt 0.832179 0.542821
vt 0.667821 0.707180
vt 0.667821 0.707180
vt 0.832179 0.707179
vt 0.832179 0.707179
vt 0.667821 0.542821
vt 0.832179 0.542821
vt 0.667821 0.707180
vt 0.832179 0.707179
vt 0.667821 0.707180
vt 0.667821 0.707180
vt 0.832179 0.707179
vt 0.832179 0.707179
vt 0.832179 0.542821
vt 0.832179 0.542821
vt 0.667821 0.542821
vt 0.667821 0.542821
vt 0.667821 0.707180
vt 0.667821 0.707180
vt 0.667821 0.542821
vt 0.667821 0.542821
vt 0.667821 0.707180
vt 0.667821 0.707180
vt 0.667821 0.542821
vt 0.667821 0.542821
vt 0.832179 0.542821
vt 0.832179 0.542821
vt 0.832179 0.707179
vt 0.832179 0.707179
vt 0.832179 0.707179
vt 0.832179 0.707179
vt 0.832179 0.542821
vt 0.832179 0.542821
vt 0.667821 0.707180
vt 0.832179 0.707179
vt 0.832179 0.707179
vt 0.667821 0.707180
vt 0.667821 0.542821
vt 0.667821 0.542821
vt 0.832179 0.542821
vt 0.832179 0.542821
vt 0.667821 0.542821
vt 0.667821 0.707180
vt 0.667821 0.542821
vt 0.667821 0.707180
vt 0.667821 0.707180
vt 0.667821 0.707180
vt 0.667821 0.542821
vt 0.667821 0.542821
vt 0.832179 0.707179
vt 0.832179 0.542821
vt 0.832179 0.707179
vt 0.832179 0.542821
vt 0.832179 0.707179
vt 0.832179 0.707179
vt 0.832179 0.542821
vt 0.832179 0.542821
vt 0.000000 0.000000
vt 0.667821 0.542821
vt 0.000000 0.000000
vt 0.667821 0.707180
vt 0.667821 0.542821
vt 0.000000 0.000000
vt 0.832179 0.707179
vt 0.000000 0.000000
vt 0.832179 0.542821
vt 0.000000 0.000000
vt 0.832179 0.707179
vt 0.000000 0.000000
vt 0.832179 0.707179
vt 0.000000 0.000000
vt 0.832179 0.707179
vt 0.000000 0.000000
vt 0.667821 0.707180
vt 0.000000 0.000000
vt 0.667821 0.707180
vt 0.000000 0.000000
vt 0.832179 0.542821
vt 0.000000 0.000000
vt 0.667821 0.542821
vt 0.000000 0.000000
vt 0.667821 0.707180
vt 0.000000 0.000000
vt 0.667821 0.542821
vt 0.000000 0.000000
vt 0.832179 0.542821
vt 0.000000 0.000000
vt 0.832179 0.542821
s 0
f 8/10/1 14/19/1 6/6/1
f 17/22/2 3/3/2 14/19/2
f 4/4/3 13/17/3 3/3/3
f 16/21/4 6/7/4 13/17/4
f 3/3/5 6/8/5 14/18/5
f 12/16/3 11/15/3 1/1/3
f 15/20/6 8/12/6 7/9/6
f 12/16/6 17/23/6 15/20/6
f 1/1/6 4/4/6 12/16/6
f 7/9/6 16/21/6 1/1/6
f 62/68/2 71/77/2 61/67/2
f 7/9/1 5/5/1 15/20/1
f 1/1/4 10/14/4 7/9/4
f 15/20/2 20/26/2 12/16/2
f 19/25/6 10/14/6 18/24/6
f 2/2/6 5/5/6 19/25/6
f 9/13/6 20/26/6 2/2/6
f 18/24/6 11/15/6 9/13/6
f 63/69/7 92/109/7 62/68/7
f 58/64/4 77/83/4 59/65/4
f 78/84/8 87/99/8 86/97/8
f 61/67/5 67/73/5 22/28/5
f 2/2/2 24/30/2 21/27/2
f 29/35/2 23/29/2 22/28/2
f 18/24/4 26/32/4 27/33/4
f 32/38/4 25/31/4 28/34/4
f 18/24/1 24/30/1 19/25/1
f 32/38/1 23/29/1 30/36/1
f 2/2/3 26/32/3 9/13/3
f 29/35/3 25/31/3 31/37/3
f 39/45/5 43/49/5 21/27/5
f 38/44/2 55/61/2 37/43/2
f 40/46/2 47/53/2 39/45/2
f 27/33/5 50/56/5 24/30/5
f 35/41/4 33/39/4 36/42/4
f 26/32/5 35/41/5 27/33/5
f 37/43/6 49/55/6 30/36/6
f 32/38/6 33/39/6 31/37/6
f 39/45/2 37/43/2 40/46/2
f 29/35/6 37/43/6 30/36/6
f 24/30/5 39/45/5 21/27/5
f 21/27/5 42/48/5 26/32/5
f 43/49/3 41/47/3 42/48/3
f 41/47/3 46/52/3 42/48/3
f 43/49/3 48/54/3 44/50/3
f 33/39/6 41/47/6 31/37/6
f 34/40/4 45/51/4 33/39/4
f 31/37/6 44/50/6 29/35/6
f 26/32/5 46/52/5 34/40/5
f 29/35/6 48/54/6 40/46/6
f 51/57/1 49/55/1 50/56/1
f 49/55/1 56/62/1 50/56/1
f 51/57/1 54/60/1 52/58/1
f 30/36/6 52/58/6 32/38/6
f 35/41/5 51/57/5 27/33/5
f 24/30/5 56/62/5 38/44/5
f 36/42/4 53/59/4 35/41/4
f 32/38/6 54/60/6 36/42/6
f 59/65/4 57/63/4 58/64/4
f 69/75/8 90/105/8 57/63/8
f 73/79/9 95/115/9 74/80/9
f 25/31/5 59/65/5 28/34/5
f 61/67/2 63/69/2 62/68/2
f 72/78/10 83/91/10 65/71/10
f 23/29/5 61/67/5 22/28/5
f 79/85/7 91/107/7 63/69/7
f 67/73/3 66/72/3 68/74/3
f 67/73/3 72/78/3 65/71/3
f 66/72/3 70/76/3 68/74/3
f 72/78/7 92/109/7 94/113/7
f 69/75/10 89/103/10 93/111/10
f 60/66/4 69/75/4 57/63/4
f 22/28/5 68/74/5 25/31/5
f 25/31/5 70/76/5 60/66/5
f 75/81/1 74/80/1 76/82/1
f 75/81/1 78/84/1 73/79/1
f 74/80/1 80/86/1 76/82/1
f 64/70/2 79/85/2 63/69/2
f 23/29/5 80/86/5 64/70/5
f 59/65/5 75/81/5 28/34/5
f 78/84/9 88/101/9 73/79/9
f 28/34/5 76/82/5 23/29/5
f 85/95/6 82/90/6 81/88/6
f 91/107/11 95/115/11 85/95/11
f 84/93/12 90/105/12 82/90/12
f 82/90/13 83/91/13 81/88/13
f 87/99/6 88/101/6 86/97/6
f 81/88/14 91/107/14 85/95/14
f 90/105/15 89/103/15 82/90/15
f 92/109/6 83/91/6 94/113/6
f 85/95/16 88/101/16 84/93/16
f 65/71/10 89/103/10 66/72/10
f 79/85/9 95/115/9 96/117/9
f 57/63/8 87/99/8 58/64/8
f 83/91/13 94/113/13 81/88/13
f 92/108/14 81/87/14 94/112/14
f 91/107/6 96/117/6 95/115/6
f 85/94/14 91/106/14 96/116/14
f 85/94/16 96/116/16 95/114/16
f 93/110/12 82/89/12 90/104/12
f 93/110/13 89/102/13 82/89/13
f 86/96/16 84/92/16 88/100/16
f 86/96/12 87/98/12 84/92/12
f 8/10/1 17/22/1 14/19/1
f 17/22/2 4/4/2 3/3/2
f 4/4/3 16/21/3 13/17/3
f 16/21/4 8/11/4 6/7/4
f 3/3/5 13/17/5 6/8/5
f 12/16/3 20/26/3 11/15/3
f 15/20/6 17/23/6 8/12/6
f 12/16/6 4/4/6 17/23/6
f 1/1/6 16/21/6 4/4/6
f 7/9/6 8/12/6 16/21/6
f 62/68/2 72/78/2 71/77/2
f 7/9/1 10/14/1 5/5/1
f 1/1/4 11/15/4 10/14/4
f 15/20/2 5/5/2 20/26/2
f 19/25/6 5/5/6 10/14/6
f 2/2/6 20/26/6 5/5/6
f 9/13/6 11/15/6 20/26/6
f 18/24/6 10/14/6 11/15/6
f 63/69/7 91/107/7 92/109/7
f 58/64/4 78/84/4 77/83/4
f 78/84/8 58/64/8 87/99/8
f 61/67/5 71/77/5 67/73/5
f 2/2/2 19/25/2 24/30/2
f 29/35/2 30/36/2 23/29/2
f 18/24/4 9/13/4 26/32/4
f 32/38/4 31/37/4 25/31/4
f 18/24/1 27/33/1 24/30/1
f 32/38/1 28/34/1 23/29/1
f 2/2/3 21/27/3 26/32/3
f 29/35/3 22/28/3 25/31/3
f 39/45/5 47/53/5 43/49/5
f 38/44/2 56/62/2 55/61/2
f 40/46/2 48/54/2 47/53/2
f 27/33/5 51/57/5 50/56/5
f 35/41/4 34/40/4 33/39/4
f 26/32/5 34/40/5 35/41/5
f 37/43/6 55/61/6 49/55/6
f 32/38/6 36/42/6 33/39/6
f 39/45/2 38/44/2 37/43/2
f 29/35/6 40/46/6 37/43/6
f 24/30/5 38/44/5 39/45/5
f 21/27/5 43/49/5 42/48/5
f 43/49/3 44/50/3 41/47/3
f 41/47/3 45/51/3 46/52/3
f 43/49/3 47/53/3 48/54/3
f 33/39/6 45/51/6 41/47/6
f 34/40/4 46/52/4 45/51/4
f 31/37/6 41/47/6 44/50/6
f 26/32/5 42/48/5 46/52/5
f 29/35/6 44/50/6 48/54/6
f 51/57/1 52/58/1 49/55/1
f 49/55/1 55/61/1 56/62/1
f 51/57/1 53/59/1 54/60/1
f 30/36/6 49/55/6 52/58/6
f 35/41/5 53/59/5 51/57/5
f 24/30/5 50/56/5 56/62/5
f 36/42/4 54/60/4 53/59/4
f 32/38/6 52/58/6 54/60/6
f 59/65/4 60/66/4 57/63/4
f 69/75/8 93/111/8 90/105/8
f 73/79/9 88/101/9 95/115/9
f 25/31/5 60/66/5 59/65/5
f 61/67/2 64/70/2 63/69/2
f 72/78/10 94/113/10 83/91/10
f 23/29/5 64/70/5 61/67/5
f 79/85/7 96/117/7 91/107/7
f 67/73/3 65/71/3 66/72/3
f 67/73/3 71/77/3 72/78/3
f 66/72/3 69/75/3 70/76/3
f 72/78/7 62/68/7 92/109/7
f 69/75/10 66/72/10 89/103/10
f 60/66/4 70/76/4 69/75/4
f 22/28/5 67/73/5 68/74/5
f 25/31/5 68/74/5 70/76/5
f 75/81/1 73/79/1 74/80/1
f 75/81/1 77/83/1 78/84/1
f 74/80/1 79/85/1 80/86/1
f 64/70/2 80/86/2 79/85/2
f 23/29/5 76/82/5 80/86/5
f 59/65/5 77/83/5 75/81/5
f 78/84/9 86/97/9 88/101/9
f 28/34/5 75/81/5 76/82/5
f 85/95/6 84/93/6 82/90/6
f 84/93/12 87/99/12 90/105/12
f 82/90/13 89/103/13 83/91/13
f 87/99/17 84/93/17 88/101/17
f 81/88/14 92/109/14 91/107/14
f 90/105/6 93/111/6 89/103/6
f 92/109/18 81/88/18 83/91/18
f 85/95/16 95/115/16 88/101/16
f 65/71/10 83/91/10 89/103/10
f 79/85/9 74/80/9 95/115/9
f 57/63/8 90/105/8 87/99/8
o Circle_Button
v 0.000000 0.402005 -0.136449
v 0.000000 0.591228 -0.106441
v 0.026620 0.402005 -0.133827
v 0.020766 0.591228 -0.104396
v 0.052217 0.402005 -0.126062
v 0.040733 0.591228 -0.098339
v 0.075807 0.402005 -0.113453
v 0.059136 0.591228 -0.088503
v 0.096484 0.402005 -0.096484
v 0.075265 0.591228 -0.075265
v 0.113453 0.402005 -0.075807
v 0.088503 0.591228 -0.059136
v 0.126062 0.402005 -0.052217
v 0.098339 0.591228 -0.040733
v 0.133827 0.402005 -0.026620
v 0.104396 0.591228 -0.020766
v 0.136449 0.402005 0.000000
v 0.106441 0.591228 0.000000
v 0.133827 0.402005 0.026620
v 0.104396 0.591228 0.020766
v 0.126062 0.402005 0.052217
v 0.098339 0.591228 0.040733
v 0.113453 0.402005 0.075807
v 0.088503 0.591228 0.059136
v 0.096484 0.402005 0.096484
v 0.075265 0.591228 0.075265
v 0.075807 0.402005 0.113453
v 0.059136 0.591228 0.088503
v 0.052217 0.402005 0.126062
v 0.040733 0.591228 0.098339
v 0.026620 0.402005 0.133827
v 0.020766 0.591228 0.104396
v 0.000000 0.402005 0.136449
v 0.000000 0.591228 0.106441
v -0.026620 0.402005 0.133827
v -0.020766 0.591228 0.104396
v -0.052217 0.402005 0.126062
v -0.040733 0.591228 0.098339
v -0.075807 0.402005 0.113453
v -0.059136 0.591228 0.088503
v -0.096484 0.402005 0.096484
v -0.075265 0.591228 0.075265
v -0.113453 0.402005 0.075807
v -0.088503 0.591228 0.059136
v -0.126062 0.402005 0.052217
v -0.098339 0.591228 0.040733
v -0.133827 0.402005 0.026620
v -0.104396 0.591228 0.020766
v -0.136449 0.402005 0.000000
v -0.106441 0.591228 0.000000
v -0.133827 0.402005 -0.026620
v -0.104396 0.591228 -0.020766
v -0.126062 0.402005 -0.052217
v -0.098339 0.591228 -0.040733
v -0.113453 0.402005 -0.075807
v -0.088503 0.591228 -0.059136
v -0.096484 0.402005 -0.096484
v -0.075265 0.591228 -0.075265
v -0.075807 0.402005 -0.113453
v -0.059136 0.591228 -0.088503
v -0.052217 0.402005 -0.126062
v -0.040733 0.591228 -0.098339
v -0.026620 0.402005 -0.133827
v -0.020766 0.591228 -0.104396
v 0.026620 0.591228 -0.133827
v 0.000000 0.591228 -0.136449
v 0.052217 0.591228 -0.126062
v 0.075807 0.591228 -0.113453
v 0.096484 0.591228 -0.096484
v 0.113453 0.591228 -0.075807
v 0.126062 0.591228 -0.052217
v 0.133827 0.591228 -0.026620
v 0.136449 0.591228 0.000000
v 0.133827 0.591228 0.026620
v 0.126062 0.591228 0.052217
v 0.113453 0.591228 0.075807
v 0.096484 0.591228 0.096484
v 0.075807 0.591228 0.113453
v 0.052217 0.591228 0.126062
v 0.026620 0.591228 0.133827
v 0.000000 0.591228 0.136449
v -0.026620 0.591228 0.133827
v -0.052217 0.591228 0.126062
v -0.075807 0.591228 0.113453
v -0.096484 0.591228 0.096484
v -0.113453 0.591228 0.075807
v -0.126062 0.591228 0.052217
v -0.133827 0.591228 0.026620
v -0.136449 0.591228 0.000000
v -0.133827 0.591228 -0.026620
v -0.126062 0.591228 -0.052217
v -0.113453 0.591228 -0.075807
v -0.096484 0.591228 -0.096484
v -0.075807 0.591228 -0.113453
v -0.052217 0.591228 -0.126062
v -0.026620 0.591228 -0.133827
v 0.020766 0.552327 -0.104396
v -0.000000 0.552327 -0.106441
v 0.040733 0.552327 -0.098339
v 0.059136 0.552327 -0.088503
v 0.075265 0.552327 -0.075265
v 0.088503 0.552327 -0.059136
v 0.098339 0.552327 -0.040733
v 0.104396 0.552327 -0.020766
v 0.106441 0.552327 0.000000
v 0.104396 0.552327 0.020766
v 0.098339 0.552327 0.040733
v 0.088503 0.552327 0.059136
v 0.075265 0.552327 0.075265
v 0.059136 0.552327 0.088503
v 0.040733 0.552327 0.098339
v 0.020766 0.552327 0.104396
v -0.000000 0.552327 0.106441
v -0.020766 0.552327 0.104396
v -0.040733 0.552327 0.098339
v -0.059136 0.552327 0.088503
v -0.075265 0.552327 0.075265
v -0.088503 0.552327 0.059136
v -0.098339 0.552327 0.040733
v -0.104396 0.552327 0.020766
v -0.106441 0.552327 0.000000
v -0.104396 0.552327 -0.020766
v -0.098339 0.552327 -0.040733
v -0.088503 0.552327 -0.059136
v -0.075265 0.552327 -0.075265
v -0.059136 0.552327 -0.088503
v -0.040733 0.552327 -0.098339
v -0.020766 0.552327 -0.104396
vn 0.0980 -0.0000 -0.9952
vn 0.2903 -0.0000 -0.9569
vn 0.4714 -0.0000 -0.8819
vn 0.6344 -0.0000 -0.7730
vn 0.7730 -0.0000 -0.6344
vn 0.8819 -0.0000 -0.4714
vn 0.9569 -0.0000 -0.2903
vn 0.9952 -0.0000 -0.0980
vn 0.9952 -0.0000 0.0980
vn 0.9569 -0.0000 0.2903
vn 0.8819 -0.0000 0.4714
vn 0.7730 -0.0000 0.6344
vn 0.6344 -0.0000 0.7730
vn 0.4714 -0.0000 0.8819
vn 0.2903 -0.0000 0.9569
vn 0.0980 -0.0000 0.9952
vn -0.0980 -0.0000 0.9952
vn -0.2903 -0.0000 0.9569
vn -0.4714 -0.0000 0.8819
vn -0.6344 -0.0000 0.7730
vn -0.7730 -0.0000 0.6344
vn -0.8819 -0.0000 0.4714
vn -0.9569 -0.0000 0.2903
vn -0.9952 -0.0000 0.0980
vn -0.9952 -0.0000 -0.0980
vn -0.9569 -0.0000 -0.2903
vn -0.8819 -0.0000 -0.4714
vn -0.7730 -0.0000 -0.6344
vn -0.6344 -0.0000 -0.7730
vn -0.4714 -0.0000 -0.8819
vn -0.2903 -0.0000 -0.9569
vn -0.0980 -0.0000 -0.9952
vn -0.0000 -1.0000 -0.0000
vn -0.0000 1.0000 -0.0000
vt 1.000000 0.500000
vt 0.000000 0.500000
vt 0.750000 0.490000
vt 0.250000 0.437220
vt 0.968750 0.500000
vt 0.796822 0.485388
vt 0.286525 0.433622
vt 0.937500 0.500000
vt 0.841844 0.471731
vt 0.321646 0.422969
vt 0.906250 0.500000
vt 0.883337 0.449553
vt 0.354014 0.405668
vt 0.875000 0.500000
vt 0.919706 0.419706
vt 0.382384 0.382384
vt 0.843750 0.500000
vt 0.949553 0.383337
vt 0.405668 0.354014
vt 0.812500 0.500000
vt 0.971731 0.341844
vt 0.422969 0.321646
vt 0.781250 0.500000
vt 0.985388 0.296822
vt 0.433623 0.286525
vt 0.750000 0.500000
vt 0.990000 0.250000
vt 0.437220 0.250000
vt 0.718750 0.500000
vt 0.985388 0.203178
vt 0.433623 0.213475
vt 0.687500 0.500000
vt 0.971731 0.158156
vt 0.422969 0.178354
vt 0.656250 0.500000
vt 0.949553 0.116663
vt 0.405668 0.145986
vt 0.625000 0.500000
vt 0.919706 0.080294
vt 0.382384 0.117616
vt 0.593750 0.500000
vt 0.883337 0.050447
vt 0.354014 0.094332
vt 0.562500 0.500000
vt 0.841844 0.028269
vt 0.321646 0.077031
vt 0.531250 0.500000
vt 0.796822 0.014612
vt 0.286525 0.066378
vt 0.500000 0.500000
vt 0.750000 0.010000
vt 0.250000 0.062780
vt 0.468750 0.500000
vt 0.703178 0.014612
vt 0.213475 0.066378
vt 0.437500 0.500000
vt 0.658156 0.028269
vt 0.178354 0.077031
vt 0.406250 0.500000
vt 0.616663 0.050447
vt 0.145986 0.094332
vt 0.375000 0.500000
vt 0.580294 0.080294
vt 0.117616 0.117616
vt 0.343750 0.500000
vt 0.550447 0.116663
vt 0.094332 0.145986
vt 0.312500 0.500000
vt 0.528269 0.158156
vt 0.077031 0.178354
vt 0.281250 0.500000
vt 0.514612 0.203178
vt 0.066378 0.213475
vt 0.250000 0.500000
vt 0.510000 0.250000
vt 0.062780 0.250000
vt 0.218750 0.500000
vt 0.514612 0.296822
vt 0.066378 0.286525
vt 0.187500 0.500000
vt 0.528269 0.341844
vt 0.077031 0.321646
vt 0.156250 0.500000
vt 0.550447 0.383337
vt 0.094332 0.354014
vt 0.125000 0.500000
vt 0.580294 0.419706
vt 0.117616 0.382384
vt 0.093750 0.500000
vt 0.616663 0.449553
vt 0.145986 0.405668
vt 0.062500 0.500000
vt 0.658156 0.471731
vt 0.178354 0.422969
vt 0.031250 0.500000
vt 0.703178 0.485388
vt 0.213475 0.433622
vt 0.968750 1.000000
vt 0.296822 0.485388
vt 1.000000 1.000000
vt 0.000000 1.000000
vt 0.250000 0.490000
vt 0.937500 1.000000
vt 0.341844 0.471731
vt 0.906250 1.000000
vt 0.383337 0.449553
vt 0.875000 1.000000
vt 0.419706 0.419706
vt 0.843750 1.000000
vt 0.449553 0.383337
vt 0.812500 1.000000
vt 0.471731 0.341844
vt 0.781250 1.000000
vt 0.485388 0.296822
vt 0.750000 1.000000
vt 0.490000 0.250000
vt 0.718750 1.000000
vt 0.485388 0.203178
vt 0.687500 1.000000
vt 0.471731 0.158156
vt 0.656250 1.000000
vt 0.449553 0.116663
vt 0.625000 1.000000
vt 0.419706 0.080294
vt 0.593750 1.000000
vt 0.383337 0.050447
vt 0.562500 1.000000
vt 0.341844 0.028269
vt 0.531250 1.000000
vt 0.296822 0.014612
vt 0.500000 1.000000
vt 0.250000 0.010000
vt 0.468750 1.000000
vt 0.203178 0.014612
vt 0.437500 1.000000
vt 0.158156 0.028269
vt 0.406250 1.000000
vt 0.116663 0.050447
vt 0.375000 1.000000
vt 0.080294 0.080294
vt 0.343750 1.000000
vt 0.050447 0.116663
vt 0.312500 1.000000
vt 0.028269 0.158156
vt 0.281250 1.000000
vt 0.014612 0.203178
vt 0.250000 1.000000
vt 0.010000 0.250000
vt 0.218750 1.000000
vt 0.014612 0.296822
vt 0.187500 1.000000
vt 0.028269 0.341844
vt 0.156250 1.000000
vt 0.050447 0.383337
vt 0.125000 1.000000
vt 0.080294 0.419706
vt 0.093750 1.000000
vt 0.116663 0.449553
vt 0.062500 1.000000
vt 0.158156 0.471731
vt 0.031250 1.000000
vt 0.203178 0.485388
vt 0.286525 0.433622
vt 0.250000 0.437220
vt 0.321646 0.422969
vt 0.354014 0.405668
vt 0.382384 0.382384
vt 0.405668 0.354014
vt 0.422969 0.321646
vt 0.433623 0.286525
vt 0.437220 0.250000
vt 0.433623 0.213475
vt 0.422969 0.178354
vt 0.405668 0.145986
vt 0.382384 0.117616
vt 0.354014 0.094332
vt 0.321646 0.077031
vt 0.286525 0.066378
vt 0.250000 0.062780
vt 0.213475 0.066378
vt 0.178354 0.077031
vt 0.145986 0.094332
vt 0.117616 0.117616
vt 0.094332 0.145986
vt 0.077031 0.178354
vt 0.066378 0.213475
vt 0.062780 0.250000
vt 0.066378 0.286525
vt 0.077031 0.321646
vt 0.094332 0.354014
vt 0.117616 0.382384
vt 0.145986 0.405668
vt 0.178354 0.422969
vt 0.213475 0.433622
s 0
f 97/118/19 162/217/19 161/215/19 99/122/19
f 99/122/20 161/215/20 163/220/20 101/125/20
f 101/125/21 163/220/21 164/222/21 103/128/21
f 103/128/22 164/222/22 165/224/22 105/131/22
f 105/131/23 165/224/23 166/226/23 107/134/23
f 107/134/24 166/226/24 167/228/24 109/137/24
f 109/137/25 167/228/25 168/230/25 111/140/25
f 111/140/26 168/230/26 169/232/26 113/143/26
f 113/143/27 169/232/27 170/234/27 115/146/27
f 115/146/28 170/234/28 171/236/28 117/149/28
f 117/149/29 171/236/29 172/238/29 119/152/29
f 119/152/30 172/238/30 173/240/30 121/155/30
f 121/155/31 173/240/31 174/242/31 123/158/31
f 123/158/32 174/242/32 175/244/32 125/161/32
f 125/161/33 175/244/33 176/246/33 127/164/33
f 127/164/34 176/246/34 177/248/34 129/167/34
f 129/167/35 177/248/35 178/250/35 131/170/35
f 131/170/36 178/250/36 179/252/36 133/173/36
f 133/173/37 179/252/37 180/254/37 135/176/37
f 135/176/38 180/254/38 181/256/38 137/179/38
f 137/179/39 181/256/39 182/258/39 139/182/39
f 139/182/40 182/258/40 183/260/40 141/185/40
f 141/185/41 183/260/41 184/262/41 143/188/41
f 143/188/42 184/262/42 185/264/42 145/191/42
f 145/191/43 185/264/43 186/266/43 147/194/43
f 147/194/44 186/266/44 187/268/44 149/197/44
f 149/197/45 187/268/45 188/270/45 151/200/45
f 151/200/46 188/270/46 189/272/46 153/203/46
f 153/203/47 189/272/47 190/274/47 155/206/47
f 155/206/48 190/274/48 191/276/48 157/209/48
f 148/196/27 146/193/27 217/304/27 218/305/27
f 157/209/49 191/276/49 192/278/49 159/212/49
f 159/212/50 192/278/50 162/218/50 97/119/50
f 97/120/51 99/123/51 101/126/51 103/129/51 105/132/51 107/135/51 109/138/51 111/141/51 113/144/51 115/147/51 117/150/51 119/153/51 121/156/51 123/159/51 125/162/51 127/165/51 129/168/51 131/171/51 133/174/51 135/177/51 137/180/51 139/183/51 141/186/51 143/189/51 145/192/51 147/195/51 149/198/51 151/201/51 153/204/51 155/207/51 157/210/51 159/213/51
f 98/121/52 100/124/52 161/216/52 162/219/52
f 100/124/52 102/127/52 163/221/52 161/216/52
f 102/127/52 104/130/52 164/223/52 163/221/52
f 104/130/52 106/133/52 165/225/52 164/223/52
f 106/133/52 108/136/52 166/227/52 165/225/52
f 108/136/52 110/139/52 167/229/52 166/227/52
f 110/139/52 112/142/52 168/231/52 167/229/52
f 112/142/52 114/145/52 169/233/52 168/231/52
f 114/145/52 116/148/52 170/235/52 169/233/52
f 116/148/52 118/151/52 171/237/52 170/235/52
f 118/151/52 120/154/52 172/239/52 171/237/52
f 120/154/52 122/157/52 173/241/52 172/239/52
f 122/157/52 124/160/52 174/243/52 173/241/52
f 124/160/52 126/163/52 175/245/52 174/243/52
f 126/163/52 128/166/52 176/247/52 175/245/52
f 128/166/52 130/169/52 177/249/52 176/247/52
f 130/169/52 132/172/52 178/251/52 177/249/52
f 132/172/52 134/175/52 179/253/52 178/251/52
f 134/175/52 136/178/52 180/255/52 179/253/52
f 136/178/52 138/181/52 181/257/52 180/255/52
f 138/181/52 140/184/52 182/259/52 181/257/52
f 140/184/52 142/187/52 183/261/52 182/259/52
f 142/187/52 144/190/52 184/263/52 183/261/52
f 144/190/52 146/193/52 185/265/52 184/263/52
f 146/193/52 148/196/52 186/267/52 185/265/52
f 148/196/52 150/199/52 187/269/52 186/267/52
f 150/199/52 152/202/52 188/271/52 187/269/52
f 152/202/52 154/205/52 189/273/52 188/271/52
f 154/205/52 156/208/52 190/275/52 189/273/52
f 156/208/52 158/211/52 191/277/52 190/275/52
f 158/211/52 160/214/52 192/279/52 191/277/52
f 160/214/52 98/121/52 162/219/52 192/279/52
f 193/280/52 194/281/52 224/311/52 223/310/52 222/309/52 221/308/52 220/307/52 219/306/52 218/305/52 217/304/52 216/303/52 215/302/52 214/301/52 213/300/52 212/299/52 211/298/52 210/297/52 209/296/52 208/295/52 207/294/52 206/293/52 205/292/52 204/291/52 203/290/52 202/289/52 201/288/52 200/287/52 199/286/52 198/285/52 197/284/52 196/283/52 195/282/52
f 122/157/46 120/154/46 204/291/46 205/292/46
f 150/199/28 148/196/28 218/305/28 219/306/28
f 124/160/47 122/157/47 205/292/47 206/293/47
f 152/202/29 150/199/29 219/306/29 220/307/29
f 126/163/48 124/160/48 206/293/48 207/294/48
f 100/124/35 98/121/35 194/281/35 193/280/35
f 154/205/30 152/202/30 220/307/30 221/308/30
f 128/166/49 126/163/49 207/294/49 208/295/49
f 102/127/36 100/124/36 193/280/36 195/282/36
f 156/208/31 154/205/31 221/308/31 222/309/31
f 130/169/50 128/166/50 208/295/50 209/296/50
f 104/130/37 102/127/37 195/282/37 196/283/37
f 158/211/32 156/208/32 222/309/32 223/310/32
f 132/172/19 130/169/19 209/296/19 210/297/19
f 106/133/38 104/130/38 196/283/38 197/284/38
f 160/214/33 158/211/33 223/310/33 224/311/33
f 134/175/20 132/172/20 210/297/20 211/298/20
f 108/136/39 106/133/39 197/284/39 198/285/39
f 98/121/34 160/214/34 224/311/34 194/281/34
f 136/178/21 134/175/21 211/298/21 212/299/21
f 110/139/40 108/136/40 198/285/40 199/286/40
f 138/181/22 136/178/22 212/299/22 213/300/22
f 112/142/41 110/139/41 199/286/41 200/287/41
f 140/184/23 138/181/23 213/300/23 214/301/23
f 114/145/42 112/142/42 200/287/42 201/288/42
f 142/187/24 140/184/24 214/301/24 215/302/24
f 116/148/43 114/145/43 201/288/43 202/289/43
f 144/190/25 142/187/25 215/302/25 216/303/25
f 118/151/44 116/148/44 202/289/44 203/290/44
f 146/193/26 144/190/26 216/303/26 217/304/26
f 120/154/45 118/151/45 203/290/45 204/291/45
