# Blender v3.0.1 OBJ File: ''
# www.blender.org
mtllib penguinBodyFeet.mtl
o Body
v -0.101501 0.084543 -0.168761
v -0.188236 0.084552 -0.091078
v -0.235364 0.440108 -0.114941
v 0.235407 0.440108 -0.114941
v 0.188203 0.084551 -0.091078
v 0.101468 0.084543 -0.168761
v -0.235364 0.440108 0.112405
v 0.000021 0.440108 0.209556
v -0.126895 0.440108 0.209556
v -0.101504 0.084583 0.168401
v -0.000023 0.024928 0.137374
v -0.153401 0.024928 0.077085
v -0.001699 0.024928 -0.137374
v -0.091021 0.970651 -0.151197
v -0.104859 0.859043 -0.174185
v -0.194477 0.859043 -0.093918
v 0.168812 0.970651 -0.081523
v 0.194477 0.859043 -0.093918
v 0.104859 0.859043 -0.174185
v 0.091021 0.970651 0.151197
v 0.104859 0.859043 0.174185
v 0.194477 0.859043 0.093918
v 0.000000 0.970651 0.151197
v -0.001569 0.970651 -0.151197
v -0.168812 0.970651 0.081523
v 0.126938 0.440108 0.209556
v 0.235407 0.440108 0.112405
v 0.126938 0.440108 -0.212093
v -0.126895 0.440108 -0.212093
v -0.091021 0.970651 0.151197
v -0.194477 0.859043 0.093918
v -0.001808 0.859043 -0.174185
v 0.091021 0.970651 -0.151197
v -0.168812 0.970651 -0.081523
v 0.168812 0.970651 0.081523
v 0.000000 0.859043 0.174185
v -0.002167 0.440108 -0.212093
v 0.101471 0.084582 0.168401
v -0.104859 0.859043 0.174185
v 0.188205 0.084567 0.090715
v -0.086088 0.024928 0.137374
v -0.086088 0.024928 -0.137374
v -0.153401 0.024928 -0.077085
v 0.086042 0.024928 -0.137374
v 0.153356 0.024928 0.077085
v -0.188238 0.084568 0.090715
v -0.000016 0.084594 0.168403
v 0.153356 0.024928 -0.077085
v -0.001766 0.084546 -0.168761
v 0.086042 0.024928 0.137374
vt 0.337397 0.680586
vt 0.337396 0.607409
vt 0.303550 0.607409
vt 0.303550 0.839386
vt 0.337396 0.839386
vt 0.337397 0.766208
vt 0.303550 0.521787
vt 0.662390 0.632812
vt 0.662390 0.700211
vt 0.715669 0.700211
vt 0.422471 0.949737
vt 0.490012 0.920095
vt 0.423209 0.814656
vt 0.184272 0.680586
vt 0.263672 0.680586
vt 0.263672 0.607409
vt 0.184272 0.839386
vt 0.263672 0.839386
vt 0.263672 0.766208
vt 0.474609 0.565414
vt 0.599609 0.565414
vt 0.599609 0.450211
vt 0.104873 0.961596
vt 0.104135 0.802797
vt 0.025473 0.925008
vt 0.662390 0.565414
vt 0.662390 0.450211
vt 0.303550 0.766208
vt 0.303550 0.680586
vt 0.041016 0.716797
vt 0.041016 0.774399
vt 0.166016 0.774399
vt 0.263672 0.722659
vt 0.184272 0.722659
vt 0.184272 0.766208
vt 0.263672 0.521787
vt 0.184272 0.521787
vt 0.184272 0.607409
vt 0.184272 0.925008
vt 0.599609 0.632812
vt 0.474609 0.632812
vt 0.474609 0.700211
vt 0.303550 0.925008
vt 0.303550 0.722659
vt 0.715669 0.565414
vt 0.937781 0.648437
vt 0.875000 0.648437
vt 0.875000 0.706039
vt 0.263672 0.925008
vt 0.599609 0.700211
vt 0.715672 0.450211
vt 0.955939 0.442477
vt 0.909273 0.489142
vt 0.917007 0.507812
vt 0.460370 0.814656
vt 0.490012 0.844298
vt 0.501871 0.839386
vt 0.384573 0.814656
vt 0.379660 0.802797
vt 0.343072 0.839386
vt 0.743280 0.442477
vt 0.724609 0.450211
vt 0.782211 0.507812
vt 0.501871 0.925008
vt 0.849609 0.489142
vt 0.849605 0.507812
vt 0.337395 0.925008
vt 0.354931 0.920095
vt 0.354931 0.844298
vt 0.423209 0.802797
vt 0.789945 0.489142
vt 0.937781 0.706039
vt 0.991062 0.706039
vt 0.337394 0.521787
vt 0.715667 0.632812
vt 0.460370 0.949737
vt 0.384573 0.949737
vt 0.028320 0.696274
vt 0.153320 0.581070
vt 0.028320 0.581070
vt 0.025473 0.839386
vt 0.062062 0.802797
vt 0.147684 0.802797
vt 0.062062 0.961596
vt 0.147684 0.961596
vt 0.750000 0.648437
vt 0.337397 0.722659
vt 0.974609 0.450211
vt 0.465282 0.802797
vt 0.991060 0.648437
vn -0.6609 -0.1371 -0.7379
vn 0.6609 -0.1373 -0.7378
vn 0.6609 -0.1373 -0.7379
vn -0.9913 -0.1314 0.0000
vn -0.0000 -0.1150 0.9934
vn 0.0000 -1.0000 -0.0000
vn -0.6493 0.2298 -0.7250
vn 0.6493 0.2298 -0.7250
vn 0.6493 0.2298 0.7250
vn 0.0000 1.0000 -0.0000
vn 0.6640 0.0976 0.7413
vn 0.6637 0.1020 -0.7410
vn -0.6637 0.1020 -0.7410
vn -0.6493 0.2298 0.7250
vn 0.0000 0.2017 -0.9794
vn -0.9746 0.2241 0.0000
vn 0.9746 0.2241 0.0000
vn 0.0000 0.2017 0.9794
vn 0.9913 -0.1316 0.0000
vn 0.0000 0.0841 0.9965
vn 0.0000 -0.1210 -0.9927
vn -0.6640 0.0975 0.7414
vn 0.0000 0.0901 -0.9959
vn -0.9953 0.0971 0.0000
vn 0.9953 0.0972 0.0000
vn 0.6613 -0.1328 0.7383
vn -0.5821 -0.4885 0.6500
vn -0.5822 -0.4885 0.6500
vn -0.5810 -0.4917 -0.6486
vn -0.5810 -0.4917 -0.6487
vn 0.5809 -0.4918 -0.6486
vn 0.5821 -0.4886 0.6499
vn 0.5821 -0.4887 0.6499
vn -0.8634 -0.5044 0.0000
vn -0.8635 -0.5044 -0.0000
vn 0.0000 -0.4614 0.8872
vn 0.8634 -0.5045 0.0000
vn 0.8634 -0.5046 0.0000
vn 0.0000 -0.4659 -0.8849
vn -0.6613 -0.1327 0.7383
vn -0.5821 -0.4886 0.6500
vn -0.8634 -0.5045 0.0000
usemtl Default_OBJ
s 1
f 1/1/1 2/2/1 3/3/1
f 4/4/2 5/5/3 6/6/3
f 7/7/4 3/3/4 2/2/4
f 8/8/5 9/9/5 10/10/5
f 11/11/6 12/12/6 13/13/6
f 14/14/7 15/15/7 16/16/7
f 17/17/8 18/18/8 19/19/8
f 20/20/9 21/21/9 22/22/9
f 23/23/10 24/24/10 25/25/10
f 26/26/11 27/27/11 22/22/11
f 4/4/12 28/28/12 19/19/12
f 15/15/13 29/29/13 3/3/13
f 30/30/14 25/31/14 31/32/14
f 32/33/15 24/34/15 33/35/15
f 31/36/16 25/37/16 34/38/16
f 18/18/17 17/17/17 35/39/17
f 36/40/18 23/41/18 30/42/18
f 20/20/18 23/41/18 36/40/18
f 5/5/19 4/4/19 27/43/19
f 21/21/20 36/40/20 8/8/20
f 1/1/21 29/29/21 37/44/21
f 37/44/21 28/28/21 6/6/21
f 38/45/5 26/26/5 8/8/5
f 9/46/22 39/47/22 31/48/22
f 37/44/23 32/33/23 19/19/23
f 7/7/24 31/36/24 16/16/24
f 18/18/25 22/49/25 27/43/25
f 8/8/20 36/40/20 39/50/20
f 15/15/23 32/33/23 37/44/23
f 14/14/15 24/34/15 32/33/15
f 26/26/26 38/45/26 40/51/26
f 12/52/27 41/53/28 10/54/27
f 42/55/29 43/56/30 2/57/29
f 44/58/31 6/59/31 5/60/31
f 45/61/32 40/62/33 38/63/32
f 43/56/34 12/12/35 46/64/35
f 41/53/36 11/65/36 47/66/36
f 40/67/37 45/68/37 48/69/38
f 49/70/39 13/13/39 42/55/39
f 50/71/36 38/63/36 47/66/36
f 49/70/39 6/59/39 44/58/39
f 9/46/40 7/72/40 46/73/40
f 1/1/1 3/3/1 29/29/1
f 4/4/2 6/6/3 28/28/2
f 7/7/4 2/2/4 46/74/4
f 8/8/5 10/10/5 47/75/5
f 45/68/6 11/11/6 48/69/6
f 48/69/6 13/13/6 44/58/6
f 13/13/6 43/56/6 42/55/6
f 43/56/6 13/13/6 12/12/6
f 12/12/6 11/11/6 41/76/6
f 11/11/6 45/68/6 50/77/6
f 48/69/6 11/11/6 13/13/6
f 14/14/7 16/16/7 34/38/7
f 17/17/8 19/19/8 33/35/8
f 20/78/9 22/79/9 35/80/9
f 25/25/10 24/24/10 34/81/10
f 34/81/10 24/24/10 14/82/10
f 24/24/10 17/17/10 33/83/10
f 23/23/10 25/25/10 30/84/10
f 35/39/10 23/23/10 20/85/10
f 24/24/10 23/23/10 17/17/10
f 17/17/10 23/23/10 35/39/10
f 26/26/11 22/22/11 21/21/11
f 4/4/12 19/19/12 18/18/12
f 15/15/13 3/3/13 16/16/13
f 30/86/14 31/48/14 39/47/14
f 32/33/15 33/35/15 19/19/15
f 31/36/16 34/38/16 16/16/16
f 18/18/17 35/39/17 22/49/17
f 36/40/18 30/42/18 39/50/18
f 20/20/18 36/40/18 21/21/18
f 5/5/19 27/43/19 40/67/19
f 21/21/20 8/8/20 26/26/20
f 1/1/21 37/44/21 49/87/21
f 37/44/21 6/6/21 49/87/21
f 38/45/5 8/8/5 47/75/5
f 9/46/22 31/48/22 7/72/22
f 37/44/23 19/19/23 28/28/23
f 7/7/24 16/16/24 3/3/24
f 18/18/25 27/43/25 4/4/25
f 8/8/20 39/50/20 9/9/20
f 15/15/23 37/44/23 29/29/23
f 14/14/15 32/33/15 15/15/15
f 26/26/26 40/51/26 27/27/26
f 12/52/27 10/54/27 46/88/41
f 42/55/29 2/57/29 1/89/29
f 44/58/31 5/60/31 48/69/31
f 45/61/32 38/63/32 50/71/32
f 43/56/34 46/64/35 2/57/42
f 41/53/36 47/66/36 10/54/36
f 40/67/37 48/69/38 5/5/38
f 49/70/39 42/55/39 1/89/39
f 50/71/36 47/66/36 11/65/36
f 49/70/39 44/58/39 13/13/39
f 9/46/40 46/73/40 10/90/40
o Left_Foot
v 0.023125 0.052433 0.012823
v 0.132009 0.052433 0.109633
v 0.098225 0.052433 -0.008631
v 0.098225 -0.000035 -0.008631
v 0.023125 -0.000035 0.012823
v 0.056910 0.052433 0.131086
v 0.171393 -0.000035 0.173128
v 0.057010 -0.000035 0.205804
v 0.171393 0.033082 0.173128
v 0.057010 0.033082 0.205804
vt 0.754232 0.328314
vt 0.688188 0.223677
vt 0.754232 0.223677
vt 0.858869 0.223677
vt 0.754232 0.119040
vt 0.858869 0.119040
vt 0.924913 0.223677
vt 0.754232 0.014403
vt 0.649595 0.119040
vt 0.649595 0.014403
vt 0.649595 0.185084
vt 0.544959 0.223677
vt 0.649595 0.223677
vt 0.544959 0.119040
vt 0.688188 0.328314
vt 0.963506 0.119040
vt 0.963506 0.185084
vt 0.544959 0.185084
vn -0.0000 1.0000 0.0000
vn -0.2747 0.0000 -0.9615
vn -0.9615 0.0000 0.2747
vn 0.0000 -1.0000 -0.0000
vn 0.8350 0.3733 -0.4042
vn 0.0714 0.9656 0.2500
vn 0.2747 0.0000 0.9615
vn -0.9849 0.0000 0.1729
vn -0.9225 0.3733 0.0979
vn 0.9277 0.0000 -0.3734
vn 0.9615 0.0000 -0.2747
usemtl Default_OBJ
s 1
f 51/91/43 52/92/43 53/93/43
f 51/94/44 54/95/44 55/96/44
f 56/97/45 51/94/45 55/96/45
f 55/98/46 57/99/46 58/100/46
f 59/101/47 54/95/47 52/92/47
f 56/102/48 59/101/48 52/103/48
f 59/101/49 58/104/49 57/99/49
f 51/91/43 56/105/43 52/92/43
f 51/94/44 53/93/44 54/95/44
f 55/96/50 58/106/50 60/107/50
f 60/107/51 56/97/51 55/96/51
f 55/98/46 54/95/46 57/99/46
f 57/99/52 54/95/52 59/101/52
f 54/95/53 53/93/53 52/92/53
f 56/102/48 60/108/48 59/101/48
f 59/101/49 60/108/49 58/104/49
o Right_Foot
v -0.097286 0.052433 -0.008631
v -0.055971 0.052433 0.131086
v -0.022186 0.052433 0.012823
v -0.022186 -0.000035 0.012823
v -0.097286 -0.000035 -0.008631
v -0.131070 0.052433 0.109633
v -0.056071 -0.000035 0.205804
v -0.170454 -0.000035 0.173128
v -0.056071 0.033082 0.205804
v -0.170454 0.033082 0.173128
vt 0.754232 0.328314
vt 0.688188 0.223677
vt 0.754232 0.223677
vt 0.858869 0.223677
vt 0.754232 0.119040
vt 0.858869 0.119040
vt 0.924913 0.223677
vt 0.754232 0.014403
vt 0.649595 0.119040
vt 0.649595 0.014403
vt 0.649595 0.185084
vt 0.544959 0.223677
vt 0.649595 0.223677
vt 0.544959 0.119040
vt 0.688188 0.328314
vt 0.963506 0.119040
vt 0.963506 0.185084
vt 0.544959 0.185084
vn 0.0000 1.0000 0.0000
vn 0.2747 0.0000 -0.9615
vn -0.9615 -0.0000 -0.2747
vn -0.0000 -1.0000 -0.0000
vn 0.9225 0.3733 0.0979
vn -0.0714 0.9656 0.2500
vn -0.2747 0.0000 0.9615
vn -0.9277 0.0000 -0.3734
vn -0.8350 0.3733 -0.4042
vn 0.9849 0.0000 0.1729
vn 0.9615 0.0000 0.2747
usemtl Default_OBJ
s 1
f 61/109/54 62/110/54 63/111/54
f 61/112/55 64/113/55 65/114/55
f 66/115/56 61/112/56 65/114/56
f 65/116/57 67/117/57 68/118/57
f 69/119/58 64/113/58 62/110/58
f 66/120/59 69/119/59 62/121/59
f 69/119/60 68/122/60 67/117/60
f 61/109/54 66/123/54 62/110/54
f 61/112/55 63/111/55 64/113/55
f 65/114/61 68/124/61 70/125/61
f 70/125/62 66/115/62 65/114/62
f 65/116/57 64/113/57 67/117/57
f 67/117/63 64/113/63 69/119/63
f 64/113/64 63/111/64 62/110/64
f 66/120/59 70/126/59 69/119/59
f 69/119/60 70/126/60 68/122/60
