# Blender 3.5.0
# www.blender.org
mtllib penguinFull.mtl
o Beak
v -0.008282 1.098244 0.329505
v -0.068661 1.084520 0.205505
v -0.068661 1.137339 0.209115
v 0.052097 1.084520 0.205505
v 0.052097 1.137339 0.209115
v -0.008282 1.084520 0.205505
vn -0.8974 -0.0301 0.4403
vn -0.0000 0.0682 -0.9977
vn 0.8974 -0.0301 0.4403
vn -0.0000 -0.9939 0.1100
vn -0.0000 0.9511 0.3089
vt 0.625000 0.000000
vt 0.375000 0.750000
vt 0.125000 0.750000
vt 0.625000 0.750000
vt 0.375000 0.250000
vt 0.125000 0.500000
vt 0.625000 0.250000
vt 0.875000 0.500000
vt 0.375000 0.500000
vt 0.625000 0.500000
vt 0.375000 0.375000
vt 0.250000 0.500000
s 0
f 1/1/1 3/7/1 2/5/1
f 2/5/2 3/7/2 5/10/2 4/9/2 6/11/2
f 4/9/3 5/10/3 1/2/3
f 2/6/4 6/12/4 4/9/4 1/3/4
f 5/10/5 3/8/5 1/4/5
o Body
v -0.099302 0.944451 0.151197
v -0.177093 0.944451 0.081523
v -0.177093 0.944451 -0.081523
v -0.099302 0.944451 -0.151197
v 0.160530 0.944451 0.081523
v 0.082739 0.944451 0.151197
v 0.082739 0.944451 -0.151197
v 0.160530 0.944451 -0.081523
v -0.113141 0.832844 0.174185
v -0.202759 0.832844 0.093918
v -0.113141 0.832844 -0.174185
v -0.202759 0.832844 -0.093918
v 0.186196 0.832844 -0.093918
v 0.096578 0.832844 -0.174185
v 0.096578 0.832844 0.174185
v 0.186196 0.832844 0.093918
v -0.008282 0.944451 0.151197
v -0.008282 0.832844 0.174185
v -0.135176 0.413909 0.209556
v -0.243645 0.413909 -0.114941
v 0.118656 0.413909 -0.212093
v 0.227125 0.413909 0.112405
v -0.243645 0.413909 0.112405
v -0.135176 0.413909 -0.212093
v 0.227125 0.413909 -0.114941
v 0.118656 0.413909 0.209556
v -0.008260 0.413909 0.209556
v -0.009851 0.944451 -0.151197
v -0.010090 0.832844 -0.174185
v -0.010448 0.413909 -0.212093
v -0.161683 -0.001272 0.077085
v -0.196520 0.058368 0.090715
v -0.094369 -0.001272 0.137374
v -0.109785 0.058384 0.168401
v -0.094369 -0.001272 -0.137374
v -0.109782 0.058344 -0.168761
v -0.161683 -0.001272 -0.077085
v -0.196518 0.058353 -0.091078
v 0.077761 -0.001272 0.137374
v 0.093189 0.058383 0.168401
v 0.145074 -0.001272 0.077085
v 0.179924 0.058367 0.090715
v 0.145074 -0.001272 -0.077085
v 0.179922 0.058352 -0.091078
v 0.077761 -0.001272 -0.137374
v 0.093187 0.058343 -0.168761
v -0.008298 0.058395 0.168403
v -0.008304 -0.001272 0.137374
v -0.009980 -0.001272 -0.137374
v -0.010048 0.058347 -0.168761
vn -0.6609 -0.1371 -0.7379
vn 0.6609 -0.1373 -0.7379
vn -0.9913 -0.1314 -0.0000
vn -0.0000 -0.1150 0.9934
vn -0.0000 -1.0000 -0.0000
vn -0.6493 0.2298 -0.7250
vn 0.6493 0.2298 -0.7250
vn 0.6493 0.2298 0.7250
vn -0.0000 1.0000 -0.0000
vn 0.6640 0.0976 0.7413
vn 0.6637 0.1020 -0.7410
vn -0.6637 0.1020 -0.7410
vn -0.6493 0.2298 0.7250
vn -0.0000 0.2017 -0.9794
vn -0.9746 0.2241 -0.0000
vn 0.9746 0.2241 -0.0000
vn -0.0000 0.2017 0.9794
vn 0.9913 -0.1316 -0.0000
vn -0.0000 0.0841 0.9965
vn -0.0000 -0.1210 -0.9927
vn -0.6640 0.0975 0.7414
vn -0.0000 0.0901 -0.9959
vn -0.9953 0.0971 -0.0000
vn 0.9953 0.0972 -0.0000
vn 0.6613 -0.1328 0.7383
vn -0.5822 -0.4885 0.6500
vn -0.5810 -0.4917 -0.6487
vn 0.5809 -0.4918 -0.6486
vn 0.5821 -0.4887 0.6499
vn -0.8635 -0.5044 -0.0000
vn -0.0000 -0.4614 0.8872
vn 0.8634 -0.5045 -0.0000
vn -0.0000 -0.4659 -0.8849
vn -0.6613 -0.1327 0.7383
vn -0.5821 -0.4886 0.6500
vn -0.5810 -0.4917 -0.6486
vn 0.5821 -0.4886 0.6499
vn -0.8634 -0.5044 -0.0000
vn 0.8634 -0.5046 -0.0000
vt 0.182602 0.750000
vt 0.375000 0.000000
vt 0.375000 0.942398
vt 0.375000 0.057602
vt 0.125000 0.692398
vt 0.125000 0.557602
vt 0.375000 0.192398
vt 0.182602 0.500000
vt 0.375000 0.307602
vt 0.375000 0.692398
vt 0.317398 0.750000
vt 0.375000 0.807602
vt 0.317398 0.500000
vt 0.375000 0.442398
vt 0.375000 0.557602
vt 0.500000 0.000000
vt 0.500000 0.942398
vt 0.500000 0.057602
vt 0.500000 0.307602
vt 0.500000 0.192398
vt 0.500000 0.557602
vt 0.500000 0.442398
vt 0.500000 0.807602
vt 0.500000 0.692398
vt 0.375000 0.875000
vt 0.250000 0.750000
vt 0.500000 0.875000
vt 0.562781 0.942398
vt 0.562781 0.000000
vt 0.562781 0.192398
vt 0.562781 0.442398
vt 0.562781 0.692398
vt 0.562781 0.057602
vt 0.562781 0.307602
vt 0.562781 0.557602
vt 0.562781 0.807602
vt 0.562781 0.875000
vt 0.375000 0.373838
vt 0.248838 0.500000
vt 0.500000 0.373838
vt 0.562781 0.373838
vt 0.856330 0.684664
vt 0.875000 0.692398
vt 0.616062 0.057602
vt 0.809664 0.731329
vt 0.616060 0.942398
vt 0.817398 0.750000
vt 0.616060 0.000000
vt 0.809665 0.518670
vt 0.616066 0.307602
vt 0.817398 0.500000
vt 0.856330 0.565335
vt 0.616065 0.192398
vt 0.875000 0.557602
vt 0.690336 0.731329
vt 0.616060 0.807602
vt 0.682602 0.750000
vt 0.643671 0.684664
vt 0.625000 0.692398
vt 0.616063 0.692398
vt 0.643671 0.565335
vt 0.625000 0.557602
vt 0.616065 0.557602
vt 0.690336 0.518670
vt 0.682602 0.500000
vt 0.616066 0.442398
vt 0.616058 0.875000
vt 0.749996 0.750000
vt 0.750000 0.731330
vt 0.751162 0.518670
vt 0.616066 0.373838
vt 0.751162 0.500000
s 0
f 42/62/6 44/65/6 26/42/6
f 31/47/7 50/75/7 52/78/7
f 29/45/8 26/42/8 44/65/8
f 33/49/9 25/40/9 40/58/9
f 54/81/10 37/54/10 55/82/10
f 10/21/11 17/31/11 18/32/11
f 14/27/12 19/33/12 20/34/12
f 12/24/13 21/35/13 22/36/13
f 23/38/14 34/51/14 8/17/14
f 32/48/15 28/44/15 22/36/15
f 31/47/16 27/43/16 20/34/16
f 17/31/17 30/46/17 26/42/17
f 7/14/18 8/16/18 16/30/18
f 35/52/19 34/50/19 13/26/19
f 16/30/20 8/16/20 9/19/20
f 19/33/21 14/27/21 11/22/21
f 24/39/22 23/37/22 7/15/22
f 12/24/22 23/37/22 24/39/22
f 50/75/23 31/47/23 28/44/23
f 21/35/24 24/39/24 33/49/24
f 42/62/25 30/46/25 36/53/25
f 36/53/25 27/43/25 52/78/25
f 46/68/9 32/48/9 33/49/9
f 25/41/26 15/28/26 16/30/26
f 36/53/27 35/52/27 20/34/27
f 29/45/28 16/30/28 18/32/28
f 19/33/29 22/36/29 28/44/29
f 33/49/24 24/39/24 15/29/24
f 17/31/27 35/52/27 36/53/27
f 10/21/19 34/50/19 35/52/19
f 32/48/30 46/68/30 48/72/30
f 37/54/31 39/57/31 40/59/31
f 41/61/32 43/64/32 44/66/32
f 51/76/33 52/77/33 50/74/33
f 47/70/34 48/71/34 46/69/34
f 43/64/35 37/54/35 38/55/35
f 39/57/36 54/81/36 53/80/36
f 48/72/37 47/70/37 49/73/37
f 56/84/38 55/82/38 41/61/38
f 45/67/36 46/69/36 53/80/36
f 56/84/38 52/77/38 51/76/38
f 25/41/39 29/45/39 38/56/39
f 42/62/6 26/42/6 30/46/6
f 31/47/7 52/78/7 27/43/7
f 29/45/8 44/65/8 38/56/8
f 33/49/9 40/58/9 53/79/9
f 47/70/10 54/81/10 49/73/10
f 49/73/10 55/82/10 51/76/10
f 55/82/10 43/64/10 41/61/10
f 43/64/10 55/82/10 37/54/10
f 37/54/10 54/81/10 39/57/10
f 54/81/10 47/70/10 45/67/10
f 49/73/10 54/81/10 55/82/10
f 10/21/11 18/32/11 9/19/11
f 14/27/12 20/34/12 13/26/12
f 12/24/13 22/36/13 11/22/13
f 8/17/14 34/51/14 9/18/14
f 9/18/14 34/51/14 10/20/14
f 34/51/14 14/27/14 13/25/14
f 23/38/14 8/17/14 7/13/14
f 11/22/14 23/38/14 12/23/14
f 34/51/14 23/38/14 14/27/14
f 14/27/14 23/38/14 11/22/14
f 32/48/15 22/36/15 21/35/15
f 31/47/16 20/34/16 19/33/16
f 17/31/17 26/42/17 18/32/17
f 7/14/18 16/30/18 15/28/18
f 35/52/19 13/26/19 20/34/19
f 16/30/20 9/19/20 18/32/20
f 19/33/21 11/22/21 22/36/21
f 24/39/22 7/15/22 15/29/22
f 12/24/22 24/39/22 21/35/22
f 50/75/23 28/44/23 48/72/23
f 21/35/24 33/49/24 32/48/24
f 42/62/25 36/53/25 56/83/25
f 36/53/25 52/78/25 56/83/25
f 46/68/9 33/49/9 53/79/9
f 25/41/26 16/30/26 29/45/26
f 36/53/27 20/34/27 27/43/27
f 29/45/28 18/32/28 26/42/28
f 19/33/29 28/44/29 31/47/29
f 33/49/24 15/29/24 25/40/24
f 17/31/27 36/53/27 30/46/27
f 10/21/19 35/52/19 17/31/19
f 32/48/30 48/72/30 28/44/30
f 37/54/40 40/59/40 38/55/40
f 41/61/41 44/66/41 42/63/41
f 51/76/33 50/74/33 49/73/33
f 47/70/42 46/69/42 45/67/42
f 43/64/43 38/55/43 44/66/43
f 39/57/36 53/80/36 40/59/36
f 48/72/44 49/73/44 50/75/44
f 56/84/38 41/61/38 42/63/38
f 45/67/36 53/80/36 54/81/36
f 56/84/38 51/76/38 55/82/38
f 25/41/39 38/56/39 40/60/39
o Head
v -0.008282 0.882218 0.000000
v 0.155897 1.007638 0.119281
v -0.070991 1.007638 0.193003
v -0.211217 1.007638 0.000000
v -0.070991 1.007638 -0.193003
v 0.155897 1.007638 -0.119281
v 0.054428 1.210576 0.193003
v -0.172460 1.210576 0.119281
v -0.172460 1.210576 -0.119281
v 0.054428 1.210576 -0.193003
v 0.194653 1.210575 0.000000
v -0.008282 1.335995 0.000000
v -0.045141 0.916103 0.113443
v 0.088219 0.916103 0.070111
v 0.051360 0.989823 0.183555
v 0.184721 0.989823 0.000000
v 0.088219 0.916103 -0.070111
v -0.127564 0.916103 0.000000
v -0.164424 0.989823 0.113444
v -0.045141 0.916103 -0.113443
v -0.164424 0.989823 -0.113444
v 0.051360 0.989823 -0.183555
v 0.207503 1.109107 0.070111
v 0.207503 1.109107 -0.070111
v -0.008282 1.109107 0.226889
v 0.125080 1.109107 0.183557
v -0.224066 1.109107 0.070111
v -0.141643 1.109107 0.183557
v -0.141643 1.109107 -0.183557
v -0.224066 1.109107 -0.070111
v 0.125080 1.109107 -0.183557
v -0.008282 1.109107 -0.226889
v 0.147861 1.228390 0.113444
v -0.067924 1.228390 0.183555
v -0.201284 1.228390 0.000000
v -0.067924 1.228390 -0.183555
v 0.147861 1.228390 -0.113444
v 0.028578 1.302110 0.113443
v 0.111000 1.302110 0.000000
v -0.104782 1.302110 0.070111
v -0.104782 1.302110 -0.070111
v 0.028578 1.302110 -0.113443
vn 0.1024 -0.9435 0.3151
vn 0.7002 -0.6617 0.2680
vn -0.2680 -0.9435 0.1947
vn -0.2680 -0.9435 -0.1947
vn 0.1024 -0.9435 -0.3151
vn 0.9050 -0.3304 0.2680
vn 0.0247 -0.3304 0.9435
vn -0.8897 -0.3304 0.3151
vn -0.5746 -0.3304 -0.7488
vn 0.5346 -0.3304 -0.7779
vn 0.8026 -0.1256 0.5831
vn -0.3066 -0.1256 0.9435
vn -0.9921 -0.1256 -0.0000
vn -0.3066 -0.1256 -0.9435
vn 0.8026 -0.1256 -0.5831
vn 0.4089 0.6617 0.6284
vn -0.4713 0.6617 0.5831
vn -0.7002 0.6617 -0.2680
vn 0.0385 0.6617 -0.7488
vn 0.7240 0.6617 -0.1947
vn 0.2680 0.9435 -0.1947
vn 0.4911 0.7947 -0.3568
vn 0.4089 0.6617 -0.6284
vn -0.1024 0.9435 -0.3151
vn -0.1876 0.7947 -0.5773
vn -0.4713 0.6617 -0.5831
vn -0.3313 0.9435 -0.0000
vn -0.6071 0.7947 -0.0000
vn -0.7002 0.6617 0.2680
vn -0.1024 0.9435 0.3151
vn -0.1876 0.7947 0.5773
vn 0.0385 0.6617 0.7488
vn 0.2680 0.9435 0.1947
vn 0.4911 0.7947 0.3568
vn 0.7240 0.6617 0.1947
vn 0.8897 0.3304 -0.3151
vn 0.7947 0.1876 -0.5773
vn 0.5746 0.3304 -0.7488
vn -0.0247 0.3304 -0.9435
vn -0.3035 0.1876 -0.9342
vn -0.5346 0.3304 -0.7779
vn -0.9050 0.3304 -0.2680
vn -0.9822 0.1876 -0.0000
vn -0.9050 0.3304 0.2680
vn -0.5346 0.3304 0.7779
vn -0.3035 0.1876 0.9342
vn -0.0247 0.3304 0.9435
vn 0.5746 0.3304 0.7488
vn 0.7947 0.1876 0.5773
vn 0.8897 0.3304 0.3151
vn 0.3066 0.1256 -0.9435
vn 0.3035 -0.1876 -0.9342
vn 0.0247 -0.3304 -0.9435
vn -0.8026 0.1256 -0.5831
vn -0.7947 -0.1876 -0.5773
vn -0.8897 -0.3304 -0.3151
vn -0.8026 0.1256 0.5831
vn -0.7947 -0.1876 0.5773
vn -0.5746 -0.3304 0.7488
vn 0.3066 0.1256 0.9435
vn 0.3035 -0.1876 0.9342
vn 0.5346 -0.3304 0.7779
vn 0.9921 0.1256 -0.0000
vn 0.9822 -0.1876 -0.0000
vn 0.9050 -0.3304 -0.2680
vn 0.4713 -0.6617 -0.5831
vn 0.1876 -0.7947 -0.5773
vn -0.0385 -0.6617 -0.7488
vn -0.4089 -0.6617 -0.6284
vn -0.4911 -0.7947 -0.3568
vn -0.7240 -0.6617 -0.1947
vn -0.7240 -0.6617 0.1947
vn -0.4911 -0.7947 0.3568
vn -0.4089 -0.6617 0.6284
vn 0.7002 -0.6617 -0.2680
vn 0.6071 -0.7947 -0.0000
vn 0.3313 -0.9435 -0.0000
vn -0.0385 -0.6617 0.7488
vn 0.1876 -0.7947 0.5773
vn 0.4713 -0.6617 0.5831
vt 0.181819 0.000000
vt 0.909091 0.000000
vt 0.727273 0.000000
vt 0.545455 0.000000
vt 0.363637 0.000000
vt 0.272728 0.157461
vt 1.000000 0.157461
vt 0.090910 0.157461
vt 0.818182 0.157461
vt 0.636364 0.157461
vt 0.454546 0.157461
vt 0.181819 0.314921
vt 0.000000 0.314921
vt 0.909091 0.314921
vt 0.727273 0.314921
vt 0.545455 0.314921
vt 0.363637 0.314921
vt 0.454546 0.472382
vt 0.636364 0.472382
vt 0.818182 0.472382
vt 0.090910 0.472382
vt 0.272728 0.472382
vt 0.954545 0.078731
vt 0.136365 0.078731
vt 0.318182 0.078731
vt 0.227273 0.078731
vt 0.181819 0.157461
vt 0.363637 0.157461
vt 0.500000 0.078731
vt 0.409092 0.078731
vt 0.772727 0.078731
vt 0.863636 0.078731
vt 0.909091 0.157461
vt 0.590909 0.078731
vt 0.681818 0.078731
vt 0.727273 0.157461
vt 0.545455 0.157461
vt 0.318182 0.236191
vt 0.409092 0.236191
vt 0.136365 0.236191
vt 0.227273 0.236191
vt 0.863636 0.236191
vt 0.045455 0.236191
vt 0.954545 0.236191
vt 0.681818 0.236191
vt 0.772727 0.236191
vt 0.500000 0.236191
vt 0.590909 0.236191
vt 0.272728 0.314921
vt 0.090910 0.314921
vt 0.818182 0.314921
vt 0.636364 0.314921
vt 0.454546 0.314921
vt 0.136365 0.393651
vt 0.227273 0.393651
vt 0.409092 0.393651
vt 0.318182 0.393651
vt 0.863636 0.393651
vt 0.045455 0.393651
vt 0.681818 0.393651
vt 0.772727 0.393651
vt 0.500000 0.393651
vt 0.590909 0.393651
s 0
f 57/85/45 70/110/45 69/108/45
f 58/90/46 70/109/46 72/112/46
f 57/86/47 69/107/47 74/116/47
f 57/87/48 74/115/48 76/119/48
f 57/88/49 76/118/49 73/113/49
f 58/90/50 72/112/50 79/122/50
f 59/92/51 71/111/51 81/124/51
f 60/93/52 75/117/52 83/126/52
f 61/94/53 77/120/53 85/129/53
f 62/95/54 78/121/54 87/131/54
f 58/90/55 79/122/55 82/125/55
f 59/92/56 81/124/56 84/127/56
f 60/93/57 83/126/57 86/130/57
f 61/94/58 85/129/58 88/132/58
f 62/95/59 87/131/59 80/123/59
f 63/96/60 89/133/60 94/139/60
f 64/97/61 90/134/61 96/143/61
f 65/99/62 91/135/62 97/145/62
f 66/100/63 92/136/63 98/147/63
f 67/101/64 93/137/64 95/140/64
f 95/140/65 98/146/65 68/102/65
f 95/140/66 93/137/66 98/146/66
f 93/137/67 66/100/67 98/146/67
f 98/147/68 97/144/68 68/103/68
f 98/147/69 92/136/69 97/144/69
f 92/136/70 65/99/70 97/144/70
f 97/145/71 96/142/71 68/104/71
f 97/145/72 91/135/72 96/142/72
f 91/135/73 64/98/73 96/142/73
f 96/143/74 94/138/74 68/105/74
f 96/143/75 90/134/75 94/138/75
f 90/134/76 63/96/76 94/138/76
f 94/139/77 95/141/77 68/106/77
f 94/139/78 89/133/78 95/141/78
f 89/133/79 67/101/79 95/141/79
f 80/123/80 93/137/80 67/101/80
f 80/123/81 87/131/81 93/137/81
f 87/131/82 66/100/82 93/137/82
f 88/132/83 92/136/83 66/100/83
f 88/132/84 85/129/84 92/136/84
f 85/129/85 65/99/85 92/136/85
f 86/130/86 91/135/86 65/99/86
f 86/130/87 83/126/87 91/135/87
f 83/126/88 64/98/88 91/135/88
f 84/127/89 90/134/89 64/97/89
f 84/127/90 81/124/90 90/134/90
f 81/124/91 63/96/91 90/134/91
f 82/125/92 89/133/92 63/96/92
f 82/125/93 79/122/93 89/133/93
f 79/122/94 67/101/94 89/133/94
f 87/131/95 88/132/95 66/100/95
f 87/131/96 78/121/96 88/132/96
f 78/121/97 61/94/97 88/132/97
f 85/129/98 86/130/98 65/99/98
f 85/129/99 77/120/99 86/130/99
f 77/120/100 60/93/100 86/130/100
f 83/126/101 84/128/101 64/98/101
f 83/126/102 75/117/102 84/128/102
f 75/117/103 59/91/103 84/128/103
f 81/124/104 82/125/104 63/96/104
f 81/124/105 71/111/105 82/125/105
f 71/111/106 58/90/106 82/125/106
f 79/122/107 80/123/107 67/101/107
f 79/122/108 72/112/108 80/123/108
f 72/112/109 62/95/109 80/123/109
f 73/113/110 78/121/110 62/95/110
f 73/113/111 76/118/111 78/121/111
f 76/118/112 61/94/112 78/121/112
f 76/119/113 77/120/113 61/94/113
f 76/119/114 74/115/114 77/120/114
f 74/115/115 60/93/115 77/120/115
f 74/116/116 75/117/116 60/93/116
f 74/116/117 69/107/117 75/117/117
f 69/107/118 59/91/118 75/117/118
f 72/112/119 73/114/119 62/95/119
f 72/112/120 70/109/120 73/114/120
f 70/109/121 57/89/121 73/114/121
f 69/108/122 71/111/122 59/92/122
f 69/108/123 70/110/123 71/111/123
f 70/110/124 58/90/124 71/111/124
o Left_Foot
v 0.048727 -0.026234 0.205804
v 0.014843 -0.026234 0.012823
v 0.014843 0.026234 0.012823
v 0.163111 -0.026234 0.173128
v 0.089942 -0.026234 -0.008631
v 0.089942 0.026234 -0.008631
v 0.048727 0.006883 0.205804
v 0.048627 0.026234 0.131086
v 0.123727 0.026234 0.109633
v 0.163111 0.006883 0.173128
vn -0.0000 1.0000 -0.0000
vn -0.2747 -0.0000 -0.9615
vn -0.9615 -0.0000 0.2747
vn -0.0000 -1.0000 -0.0000
vn 0.8350 0.3733 -0.4042
vn 0.0714 0.9656 0.2500
vn 0.2747 -0.0000 0.9615
vn -0.9849 -0.0000 0.1729
vn -0.9225 0.3733 0.0979
vn 0.9277 -0.0000 -0.3734
vn 0.9615 -0.0000 -0.2747
vt 0.125000 0.750000
vt 0.375000 0.000000
vt 0.375000 1.000000
vt 0.375000 0.250000
vt 0.125000 0.500000
vt 0.875000 0.500000
vt 0.625000 0.250000
vt 0.375000 0.750000
vt 0.375000 0.500000
vt 0.625000 0.500000
vt 0.532794 0.000000
vt 0.532794 1.000000
vt 0.875000 0.657794
vt 0.625000 0.092206
vt 0.625000 1.000000
vt 0.625000 0.750000
vt 0.625000 0.657794
vt 0.532794 0.750000
s 0
f 101/153/125 107/164/125 104/157/125
f 101/154/126 103/156/126 100/151/126
f 106/161/127 101/154/127 100/151/127
f 100/152/128 102/155/128 99/148/128
f 108/165/129 103/156/129 107/164/129
f 106/162/130 108/165/130 107/163/130
f 108/165/131 99/150/131 102/155/131
f 101/153/125 106/160/125 107/164/125
f 101/154/126 104/157/126 103/156/126
f 100/151/132 99/149/132 105/158/132
f 105/158/133 106/161/133 100/151/133
f 100/152/128 103/156/128 102/155/128
f 102/155/134 103/156/134 108/165/134
f 103/156/135 104/157/135 107/164/135
f 106/162/130 105/159/130 108/165/130
f 108/165/131 105/159/131 99/150/131
o Right_Foot
v -0.178709 -0.026234 0.173128
v -0.105541 -0.026234 -0.008631
v -0.105541 0.026234 -0.008631
v -0.064326 -0.026234 0.205804
v -0.030441 -0.026234 0.012823
v -0.030441 0.026234 0.012823
v -0.178709 0.006883 0.173128
v -0.139326 0.026234 0.109633
v -0.064226 0.026234 0.131086
v -0.064326 0.006883 0.205804
vn -0.0000 1.0000 -0.0000
vn 0.2747 -0.0000 -0.9615
vn -0.9615 -0.0000 -0.2747
vn -0.0000 -1.0000 -0.0000
vn 0.9225 0.3733 0.0979
vn -0.0714 0.9656 0.2500
vn -0.2747 -0.0000 0.9615
vn -0.9277 -0.0000 -0.3734
vn -0.8350 0.3733 -0.4042
vn 0.9849 -0.0000 0.1729
vn 0.9615 -0.0000 0.2747
vt 0.125000 0.750000
vt 0.375000 0.000000
vt 0.375000 1.000000
vt 0.375000 0.250000
vt 0.125000 0.500000
vt 0.875000 0.500000
vt 0.625000 0.250000
vt 0.375000 0.750000
vt 0.375000 0.500000
vt 0.625000 0.500000
vt 0.532794 0.000000
vt 0.532794 1.000000
vt 0.875000 0.657794
vt 0.625000 0.092206
vt 0.625000 1.000000
vt 0.625000 0.750000
vt 0.625000 0.657794
vt 0.532794 0.750000
s 0
f 111/171/136 117/182/136 114/175/136
f 111/172/137 113/174/137 110/169/137
f 116/179/138 111/172/138 110/169/138
f 110/170/139 112/173/139 109/166/139
f 118/183/140 113/174/140 117/182/140
f 116/180/141 118/183/141 117/181/141
f 118/183/142 109/168/142 112/173/142
f 111/171/136 116/178/136 117/182/136
f 111/172/137 114/175/137 113/174/137
f 110/169/143 109/167/143 115/176/143
f 115/176/144 116/179/144 110/169/144
f 110/170/139 113/174/139 112/173/139
f 112/173/145 113/174/145 118/183/145
f 113/174/146 114/175/146 117/182/146
f 116/180/141 115/177/141 118/183/141
f 118/183/142 115/177/142 109/168/142
o Left_Wing
v -0.363557 0.297108 0.057679
v -0.292597 0.604880 0.119478
v -0.363557 0.297108 -0.049381
v -0.292597 0.604880 -0.111180
v -0.335551 0.286980 0.057679
v -0.246356 0.588158 0.119478
v -0.335551 0.286980 -0.049381
v -0.246356 0.588158 -0.111180
v -0.175203 0.929509 0.083636
v -0.175203 0.929509 -0.084475
v -0.128962 0.912788 -0.084475
v -0.128962 0.912788 0.083636
v -0.328169 0.447813 0.102879
v -0.328169 0.447813 -0.094581
v -0.291045 0.434388 -0.094581
v -0.291045 0.434388 0.102879
vn -0.9404 0.3401 -0.0000
vn -0.0959 -0.2652 0.9594
vn -0.0351 -0.0972 -0.9946
vn 0.0262 0.0725 -0.9970
vn 0.9573 -0.2890 -0.0000
vn -0.3401 -0.9404 -0.0000
vn 0.9404 -0.3401 -0.0000
vn 0.3401 0.9404 -0.0000
vn -0.9735 0.2286 -0.0000
vn 0.0351 0.0971 0.9947
vn -0.9753 0.2209 -0.0000
vn 0.9603 -0.2791 -0.0000
vn -0.0959 -0.2652 -0.9594
vn -0.0351 -0.0972 0.9946
vt 0.375000 1.000000
vt 0.125000 0.750000
vt 0.375000 0.000000
vt 0.625000 0.000000
vt 0.625000 1.000000
vt 0.125000 0.500000
vt 0.375000 0.250000
vt 0.625000 0.250000
vt 0.375000 0.750000
vt 0.625000 0.750000
vt 0.375000 0.500000
vt 0.625000 0.500000
vt 0.625000 0.000000
vt 0.875000 0.750000
vt 0.625000 1.000000
vt 0.625000 0.250000
vt 0.875000 0.500000
vt 0.625000 0.500000
vt 0.625000 0.750000
vt 0.500000 0.000000
vt 0.500000 1.000000
vt 0.500000 0.250000
vt 0.500000 0.500000
vt 0.500000 0.750000
s 0
f 120/187/147 127/196/147 128/199/147 122/191/147
f 134/207/148 131/204/148 119/184/148 123/192/148
f 132/205/149 122/191/149 126/195/149 133/206/149
f 122/191/150 128/199/150 129/201/150 126/195/150
f 133/206/151 134/207/151 123/192/151 125/194/151
f 125/194/152 123/192/152 119/185/152 121/189/152
f 126/195/153 129/201/153 130/202/153 124/193/153
f 128/200/154 127/197/154 130/202/154 129/201/154
f 131/203/155 132/205/155 121/190/155 119/186/155
f 124/193/156 130/202/156 127/198/156 120/188/156
f 120/187/157 122/191/157 132/205/157 131/203/157
f 126/195/158 124/193/158 134/207/158 133/206/158
f 121/190/159 132/205/159 133/206/159 125/194/159
f 124/193/160 120/188/160 131/204/160 134/207/160
o Right_Wing
v 0.346994 0.297108 0.057679
v 0.276034 0.604880 0.119478
v 0.346994 0.297108 -0.049381
v 0.276034 0.604880 -0.111180
v 0.318988 0.286980 0.057679
v 0.229793 0.588158 0.119478
v 0.318988 0.286980 -0.049381
v 0.229793 0.588158 -0.111180
v 0.158640 0.929509 0.083636
v 0.158640 0.929509 -0.084475
v 0.112399 0.912788 -0.084475
v 0.112399 0.912788 0.083636
v 0.311605 0.447813 0.102879
v 0.311605 0.447813 -0.094581
v 0.274482 0.434388 -0.094581
v 0.274482 0.434388 0.102879
vn 0.9404 0.3401 -0.0000
vn 0.0959 -0.2652 0.9594
vn 0.0351 -0.0972 -0.9946
vn -0.0262 0.0725 -0.9970
vn -0.9573 -0.2890 -0.0000
vn 0.3401 -0.9404 -0.0000
vn -0.9404 -0.3401 -0.0000
vn -0.3401 0.9404 -0.0000
vn 0.9735 0.2286 -0.0000
vn -0.0351 0.0971 0.9947
vn 0.9753 0.2209 -0.0000
vn -0.9603 -0.2791 -0.0000
vn 0.0959 -0.2652 -0.9594
vn 0.0351 -0.0972 0.9946
vt 0.375000 1.000000
vt 0.125000 0.750000
vt 0.375000 0.000000
vt 0.625000 0.000000
vt 0.625000 1.000000
vt 0.125000 0.500000
vt 0.375000 0.250000
vt 0.625000 0.250000
vt 0.375000 0.750000
vt 0.625000 0.750000
vt 0.375000 0.500000
vt 0.625000 0.500000
vt 0.625000 0.000000
vt 0.875000 0.750000
vt 0.625000 1.000000
vt 0.625000 0.250000
vt 0.875000 0.500000
vt 0.625000 0.500000
vt 0.625000 0.750000
vt 0.500000 0.000000
vt 0.500000 1.000000
vt 0.500000 0.250000
vt 0.500000 0.500000
vt 0.500000 0.750000
s 0
f 136/211/161 138/215/161 144/223/161 143/220/161
f 150/231/162 139/216/162 135/208/162 147/228/162
f 148/229/163 149/230/163 142/219/163 138/215/163
f 138/215/164 142/219/164 145/225/164 144/223/164
f 149/230/165 141/218/165 139/216/165 150/231/165
f 141/218/166 137/213/166 135/209/166 139/216/166
f 142/219/167 140/217/167 146/226/167 145/225/167
f 144/224/168 145/225/168 146/226/168 143/221/168
f 147/227/169 135/210/169 137/214/169 148/229/169
f 140/217/170 136/212/170 143/222/170 146/226/170
f 136/211/171 147/227/171 148/229/171 138/215/171
f 142/219/172 149/230/172 150/231/172 140/217/172
f 137/214/173 141/218/173 149/230/173 148/229/173
f 140/217/174 150/231/174 147/228/174 136/212/174
