# Blender v3.0.1 OBJ File: ''
# www.blender.org
mtllib penguinHeadBeak.mtl
o Beak
v 0.000000 1.124444 0.329505
v -0.060379 1.163539 0.209115
v -0.060379 1.110719 0.205505
v 0.060379 1.163539 0.209115
v 0.060379 1.110719 0.205505
v 0.000000 1.110719 0.205505
vt 0.796227 0.027338
vt 0.796227 0.126829
vt 0.696736 0.126829
vt 0.796227 0.226320
vt 0.696736 0.226320
vt 0.696736 0.176575
vt 0.696736 0.325811
vt 0.597245 0.226320
vt 0.646990 0.226320
vt 0.597245 0.325811
vt 0.895718 0.226320
vt 0.796227 0.325811
vn -0.8974 -0.0301 0.4403
vn 0.0000 0.0682 -0.9977
vn 0.8974 -0.0301 0.4403
vn 0.0000 -0.9939 0.1100
vn 0.0000 0.9511 0.3089
usemtl Default_OBJ
s 1
f 1/1/1 2/2/1 3/3/1
f 3/3/2 2/2/2 4/4/2 5/5/2 6/6/2
f 5/5/3 4/4/3 1/7/3
f 3/8/4 6/9/4 5/5/4 1/10/4
f 4/4/5 2/11/5 1/12/5
o Head
v 0.000000 0.908417 0.000000
v 0.096501 0.942302 0.070111
v -0.036859 0.942302 0.113443
v 0.164178 1.033837 0.119281
v 0.193002 1.016022 0.000000
v -0.119282 0.942303 0.000000
v -0.036859 0.942302 -0.113443
v 0.096501 0.942302 -0.070111
v 0.215784 1.135306 0.070111
v -0.062709 1.033837 0.193003
v 0.059642 1.016022 0.183555
v 0.000000 1.135306 0.226889
v -0.202935 1.033838 0.000000
v -0.156142 1.016022 0.113444
v -0.215784 1.135306 0.070111
v -0.062709 1.033837 -0.193003
v -0.156142 1.016022 -0.113444
v -0.133362 1.135306 -0.183557
v 0.164178 1.033837 -0.119281
v 0.059642 1.016022 -0.183555
v 0.133362 1.135306 -0.183557
v 0.133362 1.135306 0.183557
v -0.133362 1.135306 0.183557
v -0.215784 1.135306 -0.070111
v 0.000000 1.135306 -0.226889
v 0.215784 1.135306 -0.070111
v 0.062709 1.236775 0.193003
v 0.156142 1.254589 0.113444
v 0.036859 1.328310 0.113443
v -0.164178 1.236775 0.119281
v -0.059642 1.254590 0.183555
v -0.096501 1.328310 0.070111
v -0.164178 1.236775 -0.119281
v -0.193002 1.254589 0.000000
v -0.096501 1.328310 -0.070111
v 0.062709 1.236775 -0.193003
v -0.059642 1.254590 -0.183555
v 0.036859 1.328310 -0.113443
v 0.202935 1.236774 0.000000
v 0.156142 1.254589 -0.113444
v 0.119282 1.328309 0.000000
v 0.000000 1.362194 0.000000
vt 0.113062 0.071517
vt 0.134013 0.107807
vt 0.092111 0.107807
vt 0.154964 0.144095
vt 0.175915 0.107807
vt 0.196866 0.144095
vt 0.448280 0.071517
vt 0.469231 0.107807
vt 0.427329 0.107807
vt 0.364475 0.071517
vt 0.385426 0.107807
vt 0.343524 0.107807
vt 0.280671 0.071517
vt 0.301622 0.107807
vt 0.259720 0.107807
vt 0.175915 0.180384
vt 0.071160 0.144095
vt 0.113062 0.144095
vt 0.092111 0.180384
vt 0.406378 0.144095
vt 0.448280 0.144095
vt 0.427329 0.180384
vt 0.322573 0.144095
vt 0.364475 0.144095
vt 0.343524 0.180384
vt 0.238769 0.144095
vt 0.280671 0.144095
vt 0.259720 0.180384
vt 0.134013 0.180384
vt 0.050208 0.180384
vt 0.385426 0.180384
vt 0.301622 0.180384
vt 0.217818 0.180384
vt 0.113062 0.216673
vt 0.154964 0.216673
vt 0.134013 0.252961
vt 0.029257 0.216673
vt 0.071160 0.216673
vt 0.050208 0.252961
vt 0.364475 0.216673
vt 0.406378 0.216673
vt 0.385426 0.252961
vt 0.280671 0.216673
vt 0.322573 0.216673
vt 0.301622 0.252961
vt 0.196866 0.216673
vt 0.238769 0.216673
vt 0.217818 0.252961
vt 0.259720 0.252961
vt 0.238769 0.289250
vt 0.343524 0.252961
vt 0.322573 0.289250
vt 0.427329 0.252961
vt 0.406378 0.289250
vt 0.448280 0.216673
vt 0.092111 0.252961
vt 0.071160 0.289250
vt 0.175915 0.252961
vt 0.154964 0.289250
vt 0.469231 0.180384
vt 0.490182 0.144095
vt 0.217818 0.107807
vt 0.196866 0.071517
vn 0.1024 -0.9435 0.3151
vn 0.7002 -0.6617 0.2680
vn -0.2680 -0.9435 0.1947
vn -0.2680 -0.9435 -0.1947
vn 0.1024 -0.9435 -0.3151
vn 0.9050 -0.3304 0.2680
vn 0.0248 -0.3304 0.9435
vn -0.8897 -0.3304 0.3151
vn -0.5746 -0.3304 -0.7488
vn 0.5346 -0.3304 -0.7779
vn 0.8026 -0.1256 0.5831
vn -0.3066 -0.1256 0.9435
vn -0.9921 -0.1256 0.0000
vn -0.3066 -0.1256 -0.9435
vn 0.8026 -0.1256 -0.5831
vn 0.4089 0.6617 0.6284
vn -0.4713 0.6617 0.5831
vn -0.7002 0.6617 -0.2680
vn 0.0385 0.6617 -0.7488
vn 0.7240 0.6617 -0.1947
vn 0.2680 0.9435 -0.1947
vn 0.4911 0.7947 -0.3568
vn 0.4089 0.6617 -0.6284
vn -0.1024 0.9435 -0.3151
vn -0.1876 0.7947 -0.5773
vn -0.4713 0.6617 -0.5831
vn -0.3313 0.9435 0.0000
vn -0.6071 0.7947 0.0000
vn -0.7002 0.6617 0.2680
vn -0.1024 0.9435 0.3151
vn -0.1876 0.7947 0.5773
vn 0.0385 0.6617 0.7488
vn 0.2680 0.9435 0.1947
vn 0.4911 0.7947 0.3568
vn 0.7240 0.6617 0.1947
vn 0.8897 0.3304 -0.3151
vn 0.7947 0.1876 -0.5773
vn 0.5746 0.3304 -0.7488
vn -0.0248 0.3304 -0.9435
vn -0.3035 0.1876 -0.9342
vn -0.5346 0.3304 -0.7779
vn -0.9050 0.3304 -0.2680
vn -0.9822 0.1876 0.0000
vn -0.9050 0.3304 0.2680
vn -0.5346 0.3304 0.7779
vn -0.3035 0.1876 0.9342
vn -0.0248 0.3304 0.9435
vn 0.5746 0.3304 0.7488
vn 0.7947 0.1876 0.5773
vn 0.8897 0.3304 0.3151
vn 0.3066 0.1256 -0.9435
vn 0.3035 -0.1876 -0.9342
vn 0.0248 -0.3304 -0.9435
vn -0.8026 0.1256 -0.5831
vn -0.7947 -0.1876 -0.5773
vn -0.8897 -0.3304 -0.3151
vn -0.8026 0.1256 0.5831
vn -0.7947 -0.1876 0.5773
vn -0.5746 -0.3304 0.7488
vn 0.3066 0.1256 0.9435
vn 0.3035 -0.1876 0.9342
vn 0.5346 -0.3304 0.7779
vn 0.9921 0.1256 0.0000
vn 0.9822 -0.1876 0.0000
vn 0.9050 -0.3304 -0.2680
vn 0.4713 -0.6617 -0.5831
vn 0.1876 -0.7947 -0.5773
vn -0.0385 -0.6617 -0.7488
vn -0.4089 -0.6617 -0.6284
vn -0.4911 -0.7947 -0.3568
vn -0.7240 -0.6617 -0.1947
vn -0.7240 -0.6617 0.1947
vn -0.4911 -0.7947 0.3568
vn -0.4089 -0.6617 0.6284
vn 0.7002 -0.6617 -0.2680
vn 0.6071 -0.7947 0.0000
vn 0.3313 -0.9435 0.0000
vn -0.0385 -0.6617 0.7488
vn 0.1876 -0.7947 0.5773
vn 0.4713 -0.6617 0.5831
usemtl Default_OBJ
s 1
f 7/13/6 8/14/6 9/15/6
f 10/16/7 8/17/7 11/18/7
f 7/19/8 9/20/8 12/21/8
f 7/22/9 12/23/9 13/24/9
f 7/25/10 13/26/10 14/27/10
f 10/16/11 11/18/11 15/28/11
f 16/29/12 17/30/12 18/31/12
f 19/32/13 20/33/13 21/34/13
f 22/35/14 23/36/14 24/37/14
f 25/38/15 26/39/15 27/40/15
f 10/16/16 15/28/16 28/41/16
f 16/29/17 18/31/17 29/42/17
f 19/32/18 21/34/18 30/43/18
f 22/35/19 24/37/19 31/44/19
f 25/38/20 27/40/20 32/45/20
f 33/46/21 34/47/21 35/48/21
f 36/49/22 37/50/22 38/51/22
f 39/52/23 40/53/23 41/54/23
f 42/55/24 43/56/24 44/57/24
f 45/58/25 46/59/25 47/60/25
f 47/60/26 44/61/26 48/62/26
f 47/60/27 46/59/27 44/61/27
f 46/59/28 42/55/28 44/61/28
f 44/57/29 41/63/29 48/64/29
f 44/57/30 43/56/30 41/63/30
f 43/56/31 39/52/31 41/63/31
f 41/54/32 38/65/32 48/66/32
f 41/54/33 40/53/33 38/65/33
f 40/53/34 36/67/34 38/65/34
f 38/51/35 35/68/35 48/69/35
f 38/51/36 37/50/36 35/68/36
f 37/50/37 33/46/37 35/68/37
f 35/48/38 47/70/38 48/71/38
f 35/48/39 34/47/39 47/70/39
f 34/47/40 45/58/40 47/70/40
f 32/45/41 46/59/41 45/58/41
f 32/45/42 27/40/42 46/59/42
f 27/40/43 42/55/43 46/59/43
f 31/44/44 43/56/44 42/55/44
f 31/44/45 24/37/45 43/56/45
f 24/37/46 39/52/46 43/56/46
f 30/43/47 40/53/47 39/52/47
f 30/43/48 21/34/48 40/53/48
f 21/34/49 36/67/49 40/53/49
f 29/42/50 37/50/50 36/49/50
f 29/42/51 18/31/51 37/50/51
f 18/31/52 33/46/52 37/50/52
f 28/41/53 34/47/53 33/46/53
f 28/41/54 15/28/54 34/47/54
f 15/28/55 45/58/55 34/47/55
f 27/40/56 31/44/56 42/55/56
f 27/40/57 26/39/57 31/44/57
f 26/39/58 22/35/58 31/44/58
f 24/37/59 30/43/59 39/52/59
f 24/37/60 23/36/60 30/43/60
f 23/36/61 19/32/61 30/43/61
f 21/34/62 29/72/62 36/67/62
f 21/34/63 20/33/63 29/72/63
f 20/33/64 16/73/64 29/72/64
f 18/31/65 28/41/65 33/46/65
f 18/31/66 17/30/66 28/41/66
f 17/30/67 10/16/67 28/41/67
f 15/28/68 32/45/68 45/58/68
f 15/28/69 11/18/69 32/45/69
f 11/18/70 25/38/70 32/45/70
f 14/27/71 26/39/71 25/38/71
f 14/27/72 13/26/72 26/39/72
f 13/26/73 22/35/73 26/39/73
f 13/24/74 23/36/74 22/35/74
f 13/24/75 12/23/75 23/36/75
f 12/23/76 19/32/76 23/36/76
f 12/21/77 20/33/77 19/32/77
f 12/21/78 9/20/78 20/33/78
f 9/20/79 16/73/79 20/33/79
f 11/18/80 14/74/80 25/38/80
f 11/18/81 8/17/81 14/74/81
f 8/17/82 7/75/82 14/74/82
f 9/15/83 17/30/83 16/29/83
f 9/15/84 8/14/84 17/30/84
f 8/14/85 10/16/85 17/30/85
