# Blender 3.5.0
# www.blender.org
mtllib penguinLeftWing.mtl
o Left_Wing
v 0.357285 0.323307 0.057679
v 0.286325 0.631079 0.119478
v 0.357285 0.323307 -0.049381
v 0.286325 0.631079 -0.111180
v 0.329279 0.313180 0.057679
v 0.240084 0.614358 0.119478
v 0.329279 0.313180 -0.049381
v 0.240084 0.614358 -0.111180
v 0.168931 0.955709 0.083636
v 0.168931 0.955709 -0.084475
v 0.122691 0.938987 -0.084475
v 0.122691 0.938987 0.083636
v 0.321897 0.474012 0.102879
v 0.321897 0.474012 -0.094581
v 0.284773 0.460587 -0.094581
v 0.284773 0.460587 0.102879
vn 0.9404 0.3401 -0.0000
vn 0.0959 -0.2652 0.9594
vn 0.0351 -0.0972 -0.9946
vn -0.0262 0.0725 -0.9970
vn -0.9573 -0.2890 -0.0000
vn 0.3401 -0.9404 -0.0000
vn -0.9404 -0.3401 -0.0000
vn -0.3401 0.9404 -0.0000
vn 0.9735 0.2286 -0.0000
vn -0.0351 0.0971 0.9947
vn 0.9753 0.2209 -0.0000
vn -0.9603 -0.2791 -0.0000
vn 0.0959 -0.2652 -0.9594
vn 0.0351 -0.0972 0.9946
vt 0.375000 1.000000
vt 0.125000 0.750000
vt 0.375000 0.000000
vt 0.625000 0.000000
vt 0.625000 1.000000
vt 0.125000 0.500000
vt 0.375000 0.250000
vt 0.625000 0.250000
vt 0.375000 0.750000
vt 0.625000 0.750000
vt 0.375000 0.500000
vt 0.625000 0.500000
vt 0.625000 0.000000
vt 0.875000 0.750000
vt 0.625000 1.000000
vt 0.625000 0.250000
vt 0.875000 0.500000
vt 0.625000 0.500000
vt 0.625000 0.750000
vt 0.500000 0.000000
vt 0.500000 1.000000
vt 0.500000 0.250000
vt 0.500000 0.500000
vt 0.500000 0.750000
s 0
f 2/4/1 4/8/1 10/16/1 9/13/1
f 16/24/2 5/9/2 1/1/2 13/21/2
f 14/22/3 15/23/3 8/12/3 4/8/3
f 4/8/4 8/12/4 11/18/4 10/16/4
f 15/23/5 7/11/5 5/9/5 16/24/5
f 7/11/6 3/6/6 1/2/6 5/9/6
f 8/12/7 6/10/7 12/19/7 11/18/7
f 10/17/8 11/18/8 12/19/8 9/14/8
f 13/20/9 1/3/9 3/7/9 14/22/9
f 6/10/10 2/5/10 9/15/10 12/19/10
f 2/4/11 13/20/11 14/22/11 4/8/11
f 8/12/12 15/23/12 16/24/12 6/10/12
f 3/7/13 7/11/13 15/23/13 14/22/13
f 6/10/14 16/24/14 13/21/14 2/5/14
