# Blender 3.5.0
# www.blender.org
mtllib particle.mtl
o Cone
v 0.000000 0.000000 -0.032616
v 0.032616 0.000000 0.000000
v 0.000000 0.000000 0.032616
v -0.032616 0.000000 0.000000
v 0.000000 0.032616 0.000000
v 0.000000 -0.032616 0.000000
vn 0.5774 0.5774 -0.5774
vn 0.5774 0.5774 0.5774
vn 0.5774 -0.5774 -0.5774
vn -0.5774 0.5774 0.5774
vn -0.5774 0.5774 -0.5774
vn -0.5774 -0.5774 -0.5774
vn -0.5774 -0.5774 0.5774
vn 0.5774 -0.5774 0.5774
vt 0.978008 0.601311
vt 0.957856 0.841591
vt 0.978008 0.001002
vt 0.846242 0.321893
vt 0.377700 0.001002
vt 0.452109 0.169974
vt 0.652085 0.540853
vt 0.377700 0.601311
vt 0.677854 0.301156
vt 0.683471 0.297472
vt 0.377700 0.830740
vt 0.667587 0.286238
vt 0.883447 0.002552
s 0
usemtl Material.001
f 1/1/1 5/9/1 2/3/1
f 2/3/2 5/9/2 3/5/2
f 1/1/3 2/3/3 6/10/3
f 3/5/4 5/9/4 4/8/4
f 4/8/5 5/9/5 1/1/5
f 4/7/6 1/2/6 6/11/6
f 3/5/7 4/8/7 6/12/7
f 2/4/8 3/6/8 6/13/8
